<?xml version="1.0" encoding="UTF-8" standalone="no"?>
<!-- Created with Inkscape (http://www.inkscape.org/) -->

<svg
   width="152.4756mm"
   height="175.64963mm"
   viewBox="0 0 152.4756 175.64963"
   version="1.1"
   id="svg185"
   xml:space="preserve"
   inkscape:version="1.2.2 (732a01da63, 2022-12-09)"
   sodipodi:docname="drumicon.svg"
   xmlns:inkscape="http://www.inkscape.org/namespaces/inkscape"
   xmlns:sodipodi="http://sodipodi.sourceforge.net/DTD/sodipodi-0.dtd"
   xmlns="http://www.w3.org/2000/svg"
   xmlns:svg="http://www.w3.org/2000/svg"><sodipodi:namedview
     id="namedview187"
     pagecolor="#ffffff"
     bordercolor="#111111"
     borderopacity="1"
     inkscape:showpageshadow="0"
     inkscape:pageopacity="0"
     inkscape:pagecheckerboard="1"
     inkscape:deskcolor="#d1d1d1"
     inkscape:document-units="mm"
     showgrid="false"
     inkscape:zoom="0.52221046"
     inkscape:cx="155.10988"
     inkscape:cy="398.30684"
     inkscape:window-width="1920"
     inkscape:window-height="1009"
     inkscape:window-x="-8"
     inkscape:window-y="-8"
     inkscape:window-maximized="1"
     inkscape:current-layer="layer1" /><defs
     id="defs182" /><g
     inkscape:label="Layer 1"
     inkscape:groupmode="layer"
     id="layer1"
     transform="translate(-39.174242,-122.03869)"><path
       style="fill:#000000;stroke-width:0.472125"
       d="m 110.89915,297.00877 c -0.38024,-0.35589 -2.39098,-0.9102 -4.46835,-1.2318 -8.857149,-1.3712 -17.345099,-4.80825 -25.052283,-10.14453 -2.450319,-1.69654 -4.833152,-3.08463 -5.295207,-3.08463 -1.132816,0 -6.915329,-5.87718 -6.597471,-6.70551 0.136329,-0.35545 -0.690658,-1.88784 -1.83791,-3.40531 -1.147233,-1.51749 -2.971099,-4.27182 -4.053006,-6.12071 -2.113083,-3.61111 -5.523326,-11.75311 -5.54424,-13.23698 -0.0071,-0.49769 -0.11795,-0.79975 -0.246426,-0.67123 -0.594281,0.59429 -5.259735,16.90507 -4.932438,17.24419 0.459272,0.47586 -1.584166,7.01608 -2.529029,8.09449 -0.930143,1.0616 -5.029776,14.67389 -4.515151,14.99193 0.608359,0.376 0.491141,3.22794 -0.159349,3.8785 -0.311611,0.31159 -1.68511,0.56655 -3.052219,0.56655 -1.974292,0 -2.586184,-0.18788 -2.974383,-0.91323 -0.829573,-1.55006 -0.552115,-2.80237 0.809606,-3.65425 0.714086,-0.44674 1.370339,-0.86002 1.458329,-0.91841 0.512411,-0.34 4.27256,-13.76553 4.050954,-14.46377 -0.315751,-0.99484 1.512164,-6.85201 2.488844,-7.97494 0.922434,-1.06059 7.70006,-23.36958 7.70006,-25.34524 0,-0.87113 -0.424921,-2.12406 -0.944257,-2.7843 -1.356814,-1.72491 -1.356814,-7.50313 0,-9.22804 0.519336,-0.66024 0.944257,-1.84352 0.944257,-2.6295 0,-0.786 0.319678,-2.94878 0.710393,-4.80619 1.673439,-7.95526 5.303593,-16.20592 10.011926,-22.75527 1.503296,-2.09109 2.663752,-4.12255 2.578797,-4.51438 -0.220179,-1.01539 5.55441,-6.71291 6.803696,-6.71291 0.556058,0 1.831198,-0.6518 2.833664,-1.44846 6.997839,-5.56118 18.403484,-10.53601 26.547933,-11.57942 1.38046,-0.17684 2.78855,-0.60022 3.12912,-0.94079 0.34058,-0.34058 0.7736,-2.27657 0.96224,-4.30219 0.18868,-2.02565 0.57893,-4.1079 0.86723,-4.62723 0.28829,-0.51934 0.5317,-1.15671 0.54091,-1.41637 0.009,-0.25968 0.49477,-0.68184 1.07902,-0.93818 0.92482,-0.40574 1.06228,-0.81811 1.06228,-3.18685 v -2.7208 h -3.00306 -3.00306 l -0.29772,2.47868 c -0.1638,1.36325 -0.29957,4.23141 -0.30183,6.37368 l -0.004,3.89503 h -1.41639 -1.41637 l -0.004,-3.89503 c -10e-4,-2.14227 -0.13668,-4.99908 -0.29883,-6.34845 -0.27955,-2.32703 -0.37055,-2.46082 -1.76637,-2.5967 l -1.47148,-0.14329 v -3.77701 -3.777 l 1.65244,-0.17291 1.65243,-0.17291 -2.55885,-0.88779 c -1.407339,-0.48829 -2.598239,-0.83536 -2.646399,-0.77126 -0.0482,0.0641 -1.92385,5.49567 -4.16818,12.07018 -3.38114,9.90463 -3.99058,12.12188 -3.55538,12.93505 0.38737,0.72381 0.38241,1.45805 -0.0189,2.79754 -0.74264,2.47864 -2.35564,3.23799 -6.878035,3.23799 -11.76056,0 -33.410833,-8.91083 -35.872001,-14.76423 -0.772133,-1.83635 -0.189487,-3.71129 1.611485,-5.18573 1.075376,-0.88039 2.180479,-3.66998 6.533125,-16.49132 4.620467,-13.61027 5.178399,-15.59178 4.726961,-16.78776 -0.641264,-1.69892 0.258847,-3.82934 1.987283,-4.70362 5.630355,-2.84788 32.086762,5.42338 39.195331,12.25392 1.84108,1.76909 1.96683,2.04777 1.72786,3.82946 -0.14169,1.05686 -0.62197,2.18786 -1.06713,2.51337 -0.73641,0.53847 -0.69389,0.63575 0.47155,1.07885 1.85154,0.70394 4.52433,0.6219 4.52433,-0.13883 0,-0.34424 -0.53114,-1.12488 -1.18031,-1.73474 -0.64917,-0.60985 -1.18031,-1.28428 -1.18031,-1.49867 0,-0.21442 1.69964,-0.38982 3.77701,-0.38982 2.07735,0 3.77701,0.1754 3.77701,0.38982 0,0.21439 -0.53116,0.88882 -1.18033,1.49867 -1.43314,1.34638 -1.50274,2.16619 -0.21254,2.50358 0.86718,0.22677 0.95306,0.56371 0.82623,3.2419 l -0.14151,2.98885 -2.47866,0.14275 c -2.09289,0.12046 -2.47864,0.28582 -2.47864,1.0623 0,0.87706 0.39028,0.91957 8.44579,0.91957 7.75384,0 8.44044,-0.0676 8.38022,-0.82621 -0.0502,-0.63279 -0.61826,-0.8815 -2.42618,-1.0623 l -2.36064,-0.23606 -0.13954,-3.18685 c -0.12879,-2.94132 -0.0651,-3.18683 0.82622,-3.18683 1.30838,0 1.216,-1.01677 -0.21451,-2.36064 -0.64917,-0.60986 -1.1803,-1.28428 -1.1803,-1.49868 0,-0.21442 1.69966,-0.38982 3.777,-0.38982 2.07735,0 3.777,0.1754 3.777,0.38982 0,0.2144 -0.53114,0.88882 -1.18032,1.49868 -0.64917,0.60986 -1.18031,1.39049 -1.18031,1.73473 0,0.78721 2.79387,0.83847 4.45474,0.0817 0.96367,-0.43906 1.07076,-0.64419 0.5547,-1.06228 -1.17895,-0.95511 -1.65588,-3.27969 -0.94946,-4.62791 3.44725,-6.57935 34.41573,-17.1534 40.79197,-13.92826 1.75072,0.88553 2.62952,3.00213 1.97091,4.74697 -0.47322,1.25372 0.0179,2.99876 4.71756,16.76323 4.62772,13.55373 5.43271,15.54017 6.83265,16.86049 3.81262,3.59575 0.90882,7.59426 -9.21473,12.68861 -4.16965,2.09825 -13.05635,5.11068 -18.09617,6.13427 -4.62969,0.9403 -10.36993,0.96543 -12.13409,0.0532 -1.78856,-0.92491 -2.73375,-3.23717 -2.05661,-5.03113 0.44638,-1.18259 0.005,-2.83918 -3.54172,-13.27917 -2.22842,-6.5604 -4.08484,-11.98045 -4.12534,-12.04455 -0.0405,-0.0641 -1.22512,0.29218 -2.63249,0.79173 -1.91298,0.679 -2.24572,0.91696 -1.31831,0.94274 1.90872,0.0532 2.36154,0.99684 2.20491,4.59524 l -0.14061,3.22934 -1.5344,0.14792 c -1.19512,0.11529 -1.54769,0.37623 -1.59448,1.18032 -0.033,0.5678 -0.19237,3.3694 -0.35408,6.22574 l -0.29404,5.19339 -1.29835,0.14936 -1.29835,0.14935 v -4.72475 c 0,-2.91676 -0.19803,-4.84713 -0.5175,-5.04458 -0.28461,-0.17594 -0.42764,-0.93205 -0.31782,-1.68031 l 0.19967,-1.36047 h -2.98705 -2.98705 v 2.7208 c 0,2.36873 0.13739,2.78111 1.06229,3.18685 0.58426,0.25633 1.08009,0.6785 1.10185,0.93818 0.0217,0.25966 0.26995,1.02449 0.55153,1.69961 0.28158,0.67511 0.66262,2.95447 0.84674,5.06524 l 0.33476,3.83773 1.7104,0.29927 c 11.11877,1.94557 18.74697,4.97689 26.49698,10.52946 2.2072,1.58137 4.44411,2.877 4.97097,2.8792 1.32667,0.005 7.05238,5.83098 6.68138,6.7978 -0.15899,0.41431 0.18966,1.3063 0.79958,2.04575 3.53012,4.27976 7.79119,11.99909 9.71488,17.59945 1.28936,3.75367 2.83177,10.56779 2.84564,12.57156 0.005,0.81212 0.3289,1.74109 0.7184,2.06434 1.00056,0.83039 1.01021,8.79837 0.0119,9.90137 -1.4555,1.60832 -0.92224,5.00589 2.55863,16.30161 1.84044,5.9724 3.626,11.07135 3.9679,11.33101 0.81501,0.61899 2.78423,7.14683 2.46567,8.17351 -0.20146,0.64925 3.61486,14.17454 4.07879,14.45555 2.40465,1.45656 2.73322,1.81939 2.73322,3.01824 0,1.8894 -0.81202,2.44419 -3.57757,2.44419 -2.93068,0 -3.74523,-0.72408 -3.31459,-2.94647 0.16399,-0.84631 0.33003,-1.75514 0.36898,-2.01962 0.14061,-0.95488 -4.08375,-14.16654 -4.67694,-14.62713 -0.77971,-0.60547 -2.985,-7.72115 -2.4881,-8.02825 0.20624,-0.12734 -0.37924,-2.72862 -1.30107,-5.78033 -0.92185,-3.05172 -2.02711,-6.71134 -2.45614,-8.1325 l -0.78003,-2.58392 -1.30403,3.52818 c -1.74573,4.72317 -5.38899,11.57826 -8.17704,15.38571 -1.25039,1.70762 -2.20395,3.43395 -2.11898,3.83633 0.21793,1.03209 -5.5427,6.73209 -6.8037,6.73209 -0.55604,0 -1.83121,0.65182 -2.83366,1.44848 -7.34481,5.83692 -18.01832,10.40158 -27.59692,11.80215 -2.05154,0.29998 -3.97506,0.8406 -4.27451,1.2014 -0.75737,0.91259 -8.4428,0.91987 -9.41603,0.009 z M 86.719571,178.3826 c 1.58475,-0.4247 1.30197,-1.29968 -1.104662,-3.41809 -5.846164,-5.14602 -22.547172,-10.92023 -31.584971,-10.92023 -4.600178,0 -5.104667,0.7696 -2.196361,3.3505 6.838028,6.06821 28.171068,12.78735 34.885994,10.98782 z m 67.175319,-0.44165 c 8.69427,-1.64925 21.17613,-6.74412 25.36131,-10.35201 3.49911,-3.01643 2.35141,-3.8734 -4.54442,-3.39323 -4.76891,0.33205 -10.95308,1.92896 -17.72775,4.57773 -9.04603,3.53681 -15.91378,8.73232 -12.66514,9.58127 1.78605,0.46675 5.86302,0.2906 9.576,-0.41376 z"
       id="path438" /></g></svg>
