<?xml version="1.0" encoding="UTF-8" standalone="no"?>
<!-- Created with Inkscape (http://www.inkscape.org/) -->

<svg
   width="1000"
   height="1000"
   viewBox="0 0 264.58333 264.58333"
   version="1.1"
   id="svg5"
   xml:space="preserve"
   sodipodi:docname="HV-Style.svg"
   inkscape:version="1.2.2 (732a01da63, 2022-12-09)"
   xmlns:inkscape="http://www.inkscape.org/namespaces/inkscape"
   xmlns:sodipodi="http://sodipodi.sourceforge.net/DTD/sodipodi-0.dtd"
   xmlns="http://www.w3.org/2000/svg"
   xmlns:svg="http://www.w3.org/2000/svg"><sodipodi:namedview
     id="namedview7"
     pagecolor="#ffffff"
     bordercolor="#111111"
     borderopacity="1"
     inkscape:showpageshadow="0"
     inkscape:pageopacity="0"
     inkscape:pagecheckerboard="1"
     inkscape:deskcolor="#d1d1d1"
     inkscape:document-units="mm"
     showgrid="false"
     inkscape:zoom="0.18462928"
     inkscape:cx="465.79828"
     inkscape:cy="64.995108"
     inkscape:window-width="1920"
     inkscape:window-height="1009"
     inkscape:window-x="-8"
     inkscape:window-y="-8"
     inkscape:window-maximized="1"
     inkscape:current-layer="layer1"
     showguides="false" /><defs
     id="defs2" /><g
     inkscape:label="Layer 1"
     inkscape:groupmode="layer"
     id="layer1"><path
       id="path1073"
       style="fill:#000000;stroke-width:0.305497"
       d="m 120.11825,0 -0.003,0.78806559 -0.46819,7.33185221 c -0.25736,4.0325582 -0.54214,7.6921272 -0.63304,8.1323202 l -0.16536,0.800468 -0.97358,0.279053 -0.97359,0.279569 -0.21549,0.752926 c -0.11859,0.414374 -0.44261,2.529834 -0.71985,4.700488 -0.66222,5.184986 -1.41211,7.983998 -3.03599,11.327991 l -1.33532,2.749703 -1.67122,2.014347 c -1.97597,2.382057 -4.89629,4.769104 -11.348663,9.276436 -19.72401,13.778303 -26.42068,24.06469 -28.74605,44.156478 l -0.51263,4.429704 0.1881,6.721039 c 0.1033,3.6965 0.36021,7.75219 0.57103,9.01237 l 0.38292,2.29133 4.146,2.02107 4.14549,2.02106 2.09082,1.95027 c 3.87155,3.61151 6.43076,7.63195 7.53133,11.83184 l 0.61288,2.33835 0.1664,3.66593 0.1664,3.66593 -0.62374,2.59674 c -2.34446,9.75995 -8.91391,16.40174 -19.49493,19.70887 -3.97746,1.24316 -3.75542,1.03662 -5.0953,4.73925 -2.18443,6.03645 -4.09448,14.70995 -5.14439,23.3624 l -0.62993,5.19348 -0.0429,6.87348 -0.04289,6.874 0.39895,2.44378 c 4.59526,28.13731 29.33494,47.0657 65.277663,49.94424 v -0.001 c 11.48057,0.91943 25.0643,-0.25256 34.36845,-2.96468 1.4282,-0.41633 2.94047,-0.76026 3.36052,-0.76326 0.42006,-0.004 0.84343,-0.13222 0.94103,-0.28628 0.0976,-0.15405 0.57873,-0.35219 1.06918,-0.44029 0.49047,-0.0881 1.02273,-0.28954 1.18236,-0.44751 0.15962,-0.15797 0.60625,-0.28733 0.9927,-0.28733 0.38646,0 0.7028,-0.12384 0.7028,-0.27543 0,-0.31325 1.70241,-0.97443 1.92805,-0.74879 0.32081,0.32084 8.92497,-3.88309 10.80606,-5.27978 0.53487,-0.39715 1.11888,-0.72244 1.29811,-0.72244 0.17924,0 0.32608,-0.10746 0.32608,-0.23926 0,-0.13179 0.44661,-0.49895 0.9927,-0.81597 13.08779,-7.59722 22.32764,-22.7918 24.08897,-39.61361 l 0.36174,-3.45353 -0.17725,-5.50974 -0.17725,-5.50974 -0.63097,-4.55373 C 203.7716,180.945 202.33642,174.659 199.79143,167.99853 l -0.89401,-2.33939 -0.52348,-0.20929 c -0.28783,-0.11524 -1.89785,-0.68922 -3.57807,-1.27537 -1.68024,-0.58612 -4.36104,-1.6976 -5.95726,-2.46962 l -2.90215,-1.40353 -3.20808,-3.2303 -3.20807,-3.23029 -1.42678,-2.90215 c -0.78462,-1.59622 -1.64364,-3.80484 -1.90893,-4.90771 l -0.48214,-2.00505 v -2.6665 c 0,-10.02481 4.61434,-16.91467 15.06936,-22.50095 3.56326,-1.90389 3.25229,-1.42075 3.92069,-6.09162 l 0.54881,-3.83387 0.007,-4.91547 c 0.0355,-26.81101 -7.59941,-41.077421 -30.23743,-56.49939 -8.78817,-5.986892 -11.06664,-8.200275 -13.56506,-13.178524 l -1.09864,-2.189014 -0.75603,-3.156396 c -0.57768,-2.411535 -1.66398,-9.695593 -1.68568,-11.304736 -0.002,-0.113005 -0.4665,-0.358561 -1.03353,-0.545704 l -1.03095,-0.340547 -0.16691,-9.84126 C 145.63905,4.9125128 145.57503,2.4205073 145.51257,0 Z" /></g></svg>
