<?xml version="1.0" encoding="UTF-8" standalone="no"?>
<!-- Created with Inkscape (http://www.inkscape.org/) -->

<svg
   width="1000"
   height="1000"
   viewBox="0 0 264.58333 264.58333"
   version="1.1"
   id="svg5"
   xml:space="preserve"
   sodipodi:docname="JZ-Shape.svg"
   inkscape:version="1.2.2 (732a01da63, 2022-12-09)"
   xmlns:inkscape="http://www.inkscape.org/namespaces/inkscape"
   xmlns:sodipodi="http://sodipodi.sourceforge.net/DTD/sodipodi-0.dtd"
   xmlns="http://www.w3.org/2000/svg"
   xmlns:svg="http://www.w3.org/2000/svg"><sodipodi:namedview
     id="namedview7"
     pagecolor="#ffffff"
     bordercolor="#111111"
     borderopacity="1"
     inkscape:showpageshadow="0"
     inkscape:pageopacity="0"
     inkscape:pagecheckerboard="1"
     inkscape:deskcolor="#d1d1d1"
     inkscape:document-units="mm"
     showgrid="false"
     inkscape:zoom="0.52221046"
     inkscape:cx="327.45418"
     inkscape:cy="580.22583"
     inkscape:window-width="1920"
     inkscape:window-height="1009"
     inkscape:window-x="-8"
     inkscape:window-y="-8"
     inkscape:window-maximized="1"
     inkscape:current-layer="layer1"
     showguides="false" /><defs
     id="defs2" /><g
     inkscape:label="Layer 1"
     inkscape:groupmode="layer"
     id="layer1"><path
       style="fill:#000000;stroke-width:0.0901251"
       d="m 131.1274,264.50627 c -1.02333,-0.0865 -2.45186,-0.30041 -2.94716,-0.44111 -0.20637,-0.0587 -0.45546,-0.23721 -0.6534,-0.46846 -0.29924,-0.3496 -0.31988,-0.41374 -0.31988,-0.99394 v -0.62024 l 0.51821,0.0236 c 0.59747,0.0272 0.86605,-0.0899 1.05805,-0.46121 0.29287,-0.56637 0.0544,-1.34331 -0.54885,-1.78814 -0.45713,-0.33709 -0.57679,-0.5739 -0.57679,-1.14144 0,-0.35603 -0.023,-0.39718 -0.24784,-0.44245 -0.13632,-0.0275 -1.14009,-0.21601 -2.23061,-0.41899 -8.92016,-1.6604 -15.77492,-3.19246 -20.81889,-4.65311 -5.763468,-1.66898 -13.376396,-4.23177 -16.09927,-5.41959 -4.797096,-2.09269 -10.849249,-5.07308 -13.506833,-6.65149 -2.986574,-1.7738 -6.903263,-5.20996 -10.308262,-9.04358 -3.021943,-3.40235 -6.321996,-8.4356 -8.510027,-12.97951 -3.332901,-6.9215 -5.1739,-13.66612 -6.027779,-22.08321 -0.202251,-1.9936 -0.231636,-8.8663 -0.04644,-10.86008 0.143908,-1.54935 0.674861,-5.34185 0.927387,-6.62419 1.907519,-9.68641 4.555626,-17.10482 10.938327,-30.64255 0.827035,-1.75413 4.986565,-10.09652 6.830362,-13.69901 1.581754,-3.09053 2.59537,-5.06237 3.544103,-6.89458 3.243467,-6.26381 5.220305,-12.13826 5.823058,-17.30402 0.187266,-1.60495 0.141536,-5.18751 -0.0908,-7.1174 C 77.397689,100.1579 76.497395,96.53639 74.621533,90.858976 73.955902,88.844386 73.187934,86.466071 72.914945,85.573833 72.641946,84.681594 72.23806,83.363514 72.01742,82.644767 68.675577,71.758893 67.309312,65.345452 66.601236,57.220471 65.960791,49.871696 66.369084,41.377012 67.645963,35.483928 c 1.365938,-6.304148 4.139841,-12.207997 8.008201,-17.044379 1.110047,-1.387822 1.707005,-1.988766 2.497887,-2.514543 0.890191,-0.591791 2.710747,-1.455516 3.539052,-1.679013 0.963907,-0.260093 2.242027,-0.368398 3.149446,-0.266875 0.721812,0.08076 0.752497,0.07641 1.013865,-0.143509 0.148224,-0.124731 0.425074,-0.251658 0.615207,-0.282061 0.518955,-0.08298 0.514142,-0.295953 -0.01707,-0.753478 -0.244775,-0.210845 -0.483179,-0.483641 -0.529782,-0.606215 -0.120259,-0.316331 0.169283,-0.926761 0.592819,-1.249813 0.665433,-0.507548 2.119883,-0.362653 3.603241,0.358959 0.890688,0.433293 1.759096,1.132839 1.759096,1.417035 0,0.35956 -0.298563,1.388444 -0.434462,1.497236 -0.177937,0.142427 -1.2064,0.148123 -1.347062,0.0074 -0.145873,-0.145874 -0.235447,0.107853 -0.172509,0.488663 0.183723,1.111679 0.272096,1.308391 0.782407,1.741458 0.272632,0.231361 1.649347,1.597035 2.27037,2.426416 0.943682,1.260306 1.790793,3.270716 2.22332,5.276464 0.199621,0.925704 0.489094,4.008132 0.642856,6.845364 0.201666,3.721239 0.284263,4.787894 0.502432,6.488649 0.680577,5.305513 2.064864,11.019825 3.456117,14.266937 0.828556,1.933764 1.136546,2.466669 2.011946,3.481158 0.26155,0.303108 0.31638,0.418545 0.22876,0.481659 -0.0844,0.06072 -0.0754,0.07038 0.0328,0.03595 0.0863,-0.02744 0.23382,0.04415 0.35368,0.171749 0.11306,0.120342 0.16807,0.222846 0.12226,0.227787 -0.0459,0.0049 0.0181,0.03806 0.14201,0.07359 0.13686,0.03924 0.2157,0.120748 0.20082,0.207634 -0.0354,0.207049 0.64635,0.755315 1.37636,1.106801 0.73467,0.353729 1.27757,0.518721 0.74353,0.225966 -0.59193,-0.3245 -0.36438,-0.271647 0.44964,0.104429 2.02113,0.933765 4.02729,1.025037 6.26195,0.284895 2.02911,-0.672064 4.009,-2.160767 5.41652,-4.072744 l 0.39402,-0.535236 0.0622,-2.780316 c 0.0342,-1.529177 0.1409,-5.923433 0.23702,-9.765017 0.21703,-8.674049 0.409,-16.985815 0.58181,-25.18997 0.24106,-11.4437593 0.32841,-15.04624549 0.37425,-15.43396917 L 118.83639,0 h 12.05923 12.05923 l 0.0593,1.5546582 c 0.0325,0.8550622 0.0991,3.4608045 0.14773,5.7905389 0.0486,2.3297342 0.12707,5.5134049 0.17431,7.0748219 0.0472,1.561418 0.10855,4.217856 0.13623,5.903196 0.0277,1.685339 0.0705,3.408981 0.095,3.830317 0.0245,0.421335 0.064,2.043587 0.0879,3.605005 0.0394,2.585683 0.14587,7.034705 0.40646,16.988584 0.15851,6.054876 0.45134,18.159461 0.54071,22.35103 0.0465,2.181027 0.11248,5.241054 0.14662,6.800061 l 0.062,2.834556 0.33192,0.590198 c 0.18256,0.324609 0.87246,1.624384 1.53312,2.888389 1.37315,2.627133 1.58784,2.984149 2.46606,4.100693 0.63166,0.803055 1.15384,1.3308 1.52875,1.545055 0.44136,0.252217 1.48452,0.742281 1.88637,0.886189 1.59793,0.572238 4.66816,0.776875 6.73226,0.448718 2.80104,-0.445324 5.68327,-2.120238 8.4813,-4.928684 1.83155,-1.838345 2.36705,-2.606189 3.27754,-4.699477 0.51998,-1.195447 1.14405,-3.011787 1.35086,-3.931628 0.13331,-0.592947 0.75292,-4.627149 1.35651,-8.832261 0.55652,-3.877017 0.95197,-4.636454 3.30829,-6.35332 1.87768,-1.368119 2.67078,-1.663229 4.47796,-1.666252 0.91656,-0.0015 2.08326,0.150068 2.08326,0.270702 0,0.03347 0.17237,0.134083 0.38304,0.223579 0.21067,0.08949 0.67992,0.299062 1.04279,0.465701 0.36289,0.166639 0.70372,0.275811 0.75746,0.242604 0.0567,-0.03502 0.0719,-0.01858 0.0361,0.03916 -0.0664,0.107328 0.24437,0.318432 0.33512,0.22769 0.0301,-0.03014 0.0794,0.0094 0.10954,0.0879 0.0301,0.07847 0.15773,0.210156 0.28359,0.292623 0.15602,0.102229 0.20547,0.11112 0.1554,0.02794 -0.0611,-0.101521 -0.048,-0.101369 0.078,9.02e-4 0.0833,0.06758 0.12928,0.158828 0.10212,0.202781 -0.0272,0.04395 0.0156,0.07991 0.0951,0.07991 0.44369,0 3.48226,3.566901 5.07057,5.952221 1.13733,1.708041 1.73906,2.999843 2.98671,6.412088 4.16367,11.387141 4.42575,24.728043 0.81319,41.395321 -1.43602,6.6253 -3.11833,12.52694 -4.65006,16.31265 -1.00985,2.49585 -1.59117,4.08893 -2.56517,7.02976 -1.73581,5.24096 -2.2514,7.8958 -2.2491,11.58107 0.004,6.84954 2.00176,14.1021 5.89523,21.40471 1.1753,2.2044 2.30307,4.0129 8.00883,12.84283 3.95154,6.11521 5.44419,8.64335 7.52937,12.75271 1.92329,3.7903 3.94295,9.00958 4.85587,12.5487 0.22039,0.8544 0.43699,1.64886 0.48132,1.76549 0.1457,0.38323 0.62298,2.68901 0.8987,4.3417 0.60399,3.62042 0.76651,5.58978 0.76613,9.2829 0,3.52572 -0.11788,4.81103 -0.72354,7.91381 -1.44316,7.39315 -4.74307,13.66874 -9.97811,18.97582 -3.49267,3.54073 -7.56063,6.29256 -12.04648,8.14901 -2.79301,1.15589 -7.09777,2.15139 -11.35576,2.6261 -5.9183,0.65981 -17.42795,1.0976 -22.7566,0.86559 -4.31491,-0.18787 -12.85261,-0.74164 -14.5552,-0.94407 -0.17349,-0.0206 -0.68045,-0.0636 -1.12656,-0.0956 -0.44612,-0.032 -1.84532,-0.19864 -3.10932,-0.37052 -1.264,-0.17189 -2.72404,-0.37035 -3.24451,-0.44102 -0.52047,-0.0707 -1.13682,-0.16454 -1.36967,-0.2086 l -0.42336,-0.0802 -0.15951,0.67657 c -0.0877,0.3721 -0.2144,0.73148 -0.28154,0.79861 -0.073,0.073 -0.32078,0.12204 -0.61637,0.12204 h -0.49432 l -0.18748,0.42388 c -0.23019,0.52041 -0.23926,0.99627 -0.0258,1.35753 0.14468,0.24491 0.22146,0.27996 0.73329,0.33478 l 0.5717,0.0612 v 0.34206 c 0,0.67875 -0.0823,0.84315 -0.60003,1.19825 -0.53607,0.36772 -0.48942,0.3621 -1.96854,0.23694 z"
       id="path415"
       sodipodi:nodetypes="sssscssssscsssssssssssscsscsssssssscsssssssssssssscsscsssssssccssccccccssscscccssssssssssscsssssccsssssscssscsssssscsssssssssccssscssscssss" /></g></svg>
