<?xml version="1.0" encoding="UTF-8" standalone="no"?>
<!-- Created with Inkscape (http://www.inkscape.org/) -->

<svg
   width="1000"
   height="1000"
   viewBox="0 0 264.58333 264.58333"
   version="1.1"
   id="svg5"
   xml:space="preserve"
   sodipodi:docname="MS-Shape.svg"
   inkscape:version="1.2.2 (732a01da63, 2022-12-09)"
   xmlns:inkscape="http://www.inkscape.org/namespaces/inkscape"
   xmlns:sodipodi="http://sodipodi.sourceforge.net/DTD/sodipodi-0.dtd"
   xmlns="http://www.w3.org/2000/svg"
   xmlns:svg="http://www.w3.org/2000/svg"><sodipodi:namedview
     id="namedview7"
     pagecolor="#ffffff"
     bordercolor="#111111"
     borderopacity="1"
     inkscape:showpageshadow="0"
     inkscape:pageopacity="0"
     inkscape:pagecheckerboard="1"
     inkscape:deskcolor="#d1d1d1"
     inkscape:document-units="mm"
     showgrid="false"
     inkscape:zoom="0.26110523"
     inkscape:cx="352.34836"
     inkscape:cy="731.50584"
     inkscape:window-width="1920"
     inkscape:window-height="1009"
     inkscape:window-x="-8"
     inkscape:window-y="-8"
     inkscape:window-maximized="1"
     inkscape:current-layer="layer1"
     showguides="false" /><defs
     id="defs2" /><g
     inkscape:label="Layer 1"
     inkscape:groupmode="layer"
     id="layer1"><path
       style="fill:#000000;stroke-width:0.09625"
       d="m 134.1804,264.44395 c -2.72862,-2.96271 -6.12527,-3.32597 -10.56867,-3.06536 -15.76919,-1.14497 -31.834284,-4.64937 -45.087488,-13.54258 -1.831208,-1.2341 -3.582255,-2.26313 -5.125764,-3.70374 -1.797934,-1.16757 -3.143666,-2.58258 -4.737582,-4.08123 -2.230645,-2.07612 -4.81686,-4.73494 -6.355283,-6.82438 -2.798747,-3.27937 -5.133423,-6.85125 -7.387223,-10.65819 -0.902304,-1.86764 -1.728552,-3.19849 -2.398513,-4.75413 -1.091357,-2.27512 -1.986377,-4.66831 -2.717174,-6.81236 -2.709804,-7.33923 -3.764363,-15.18281 -3.663804,-23.11726 0.27057,-4.02092 0.343069,-7.91228 1.40818,-11.6022 0.39096,-2.73153 1.690162,-6.08337 2.548759,-9.23386 1.496678,-3.45542 2.521068,-6.79364 4.281016,-9.98277 3.197974,-6.48568 6.437128,-12.86802 10.245921,-18.87437 0.699002,-1.47219 2.510085,-4.31324 2.540702,-4.49971 3.959387,-6.76095 6.718209,-14.18706 7.205895,-22.04694 0.553809,-6.72327 -0.357683,-13.381505 -1.727676,-19.669025 -0.849942,-3.153596 -1.539455,-6.744799 -2.66706,-8.646626 -0.339978,-2.752686 -1.597609,-5.402206 -2.186949,-8.312276 -0.829402,-2.379618 -1.564526,-4.578935 -1.899778,-6.866557 -0.960423,-2.579836 -1.5365,-5.070961 -2.118724,-7.899811 -2.668582,-9.262546 -2.828915,-18.929373 -1.977335,-28.522318 0.41201,-0.829259 1.372311,-6.441436 2.08936,-8.883621 1.584801,-2.670738 2.362176,-6.050915 4.273133,-8.599006 1.445297,-2.31971 2.667976,-4.118145 4.762229,-5.6658941 2.476323,-2.6458319 7.617056,-2.0803043 8.927182,-4.8268312 -3.093123,-1.5805568 1.001088,-2.78543708 3.59091,-1.33668 0.253778,-0.4681818 3.041326,3.4675315 -0.206586,2.4863789 -1.353468,0.8968005 1.11935,4.1118701 2.478023,5.9532904 2.850672,8.622585 1.31883,18.011832 3.358343,26.826586 1.570387,7.926801 4.824635,15.599406 9.800876,21.977684 3.75239,4.512919 10.6431,5.387162 15.81461,2.752989 0.32372,-4.379434 0.26828,-9.499751 0.32843,-13.200124 0.25687,-7.464361 0.30512,-15.100109 0.62468,-22.785483 0.13284,-4.987237 0.0265,-9.066765 0.23129,-13.289128 -0.0915,-4.1399768 0.29945,-7.1858854 0.27534,-11.7180176 -0.60544,-2.5792057 2.92363,-0.97963913 4.435,-1.41938315 8.07314,0 16.14628,0 24.21943,0 0.13672,14.51356075 0.36828,29.10757375 0.62849,43.45205675 0.0708,2.740867 0.0732,5.768276 0.0885,8.571058 0.0542,10.145303 0.31133,20.659666 0.48116,30.848111 0.5311,2.471725 -0.62329,4.847876 0.71331,7.180617 4.00694,6.610849 13.75796,5.925966 18.86725,1.145004 1.44165,-1.435893 2.87341,-2.304475 4.36444,-4.152438 5.53392,-6.117884 5.79091,-15.185527 7.86846,-22.600187 0.68244,-4.824938 6.29424,-8.545711 10.85146,-5.90721 5.16025,2.115829 8.742,7.265169 10.33019,12.369724 2.51367,8.132854 2.04696,16.910245 0.0625,25.102705 -0.71918,2.355072 -1.72711,5.645822 -2.66088,8.547242 -1.0624,2.37071 -1.42705,4.16236 -2.43427,6.27876 -0.70785,2.60762 -2.84222,6.15696 -3.2826,8.61548 -1.1049,2.51561 -1.84877,5.1547 -1.96846,8.50958 -0.11807,9.18275 7.4503,15.60776 12.00432,22.81517 3.67511,5.30279 6.92214,10.88268 9.94971,16.43505 3.92125,8.34862 6.25889,17.76101 5.71522,27.12932 -0.0694,5.52985 -1.51208,11.3213 -2.8938,16.24596 -1.86659,5.40672 -4.08028,10.78015 -7.15182,15.52535 -0.30141,1.88266 -1.86276,4.45207 -3.41271,6.68845 -1.26366,2.44762 -3.91564,3.7539 -5.5769,6.06252 -2.49196,1.12721 -4.7793,3.3278 -6.84816,5.18553 -2.84637,1.92083 -5.54885,3.86941 -8.68981,5.6248 -1.76701,1.57411 -4.467,1.98878 -6.1643,3.55647 -2.78272,0.5548 -3.45642,1.75192 -6.15712,2.26667 -3.05911,1.37797 -8.09022,2.51247 -12.11319,3.34771 -6.64252,1.5405 -13.49377,1.89196 -20.23564,2.70012 -0.21658,2.57252 -2.73844,3.40135 -4.94891,2.89931 z"
       id="path988" /></g></svg>
