<?xml version="1.0" encoding="UTF-8" standalone="no"?>
<!-- Created with Inkscape (http://www.inkscape.org/) -->

<svg
   width="1000"
   height="1000"
   viewBox="0 0 264.58333 264.58333"
   version="1.1"
   id="svg5"
   xml:space="preserve"
   sodipodi:docname="PR-Shape.svg"
   inkscape:version="1.2.2 (732a01da63, 2022-12-09)"
   xmlns:inkscape="http://www.inkscape.org/namespaces/inkscape"
   xmlns:sodipodi="http://sodipodi.sourceforge.net/DTD/sodipodi-0.dtd"
   xmlns="http://www.w3.org/2000/svg"
   xmlns:svg="http://www.w3.org/2000/svg"><sodipodi:namedview
     id="namedview7"
     pagecolor="#ffffff"
     bordercolor="#111111"
     borderopacity="1"
     inkscape:showpageshadow="0"
     inkscape:pageopacity="0"
     inkscape:pagecheckerboard="1"
     inkscape:deskcolor="#d1d1d1"
     inkscape:document-units="mm"
     showgrid="false"
     inkscape:zoom="0.52221046"
     inkscape:cx="584.05571"
     inkscape:cy="338.9438"
     inkscape:window-width="1920"
     inkscape:window-height="1009"
     inkscape:window-x="-8"
     inkscape:window-y="-8"
     inkscape:window-maximized="1"
     inkscape:current-layer="layer1" /><defs
     id="defs2" /><g
     inkscape:label="Layer 1"
     inkscape:groupmode="layer"
     id="layer1"><path
       style="fill:#000000;stroke-width:0.148994"
       d="m 129.8455,264.58333 c 2.60312,-1.99241 1.86141,-5.57283 -2.17803,-4.85966 -12.5939,-0.0548 -25.39808,0.22785 -37.606915,-3.37559 C 74.098115,252.72098 60.45335,240.83662 54.686491,225.52155 48.780033,211.33439 49.453669,195.18344 54.304151,180.7956 58.323911,166.28633 66.392,153.4325 71.88598,139.51972 77.271101,124.5442 77.455335,107.95769 72.813296,92.768049 68.791686,78.522735 63.411939,64.345842 63.397069,49.333832 63.230015,36.693169 65.616265,23.284074 72.227544,12.544457 c 2.239738,-3.6383193 12.377136,-3.0548925 9.7805,-8.2840769 1.296721,-2.2511538 7.314669,0.9190036 3.258479,-0.2989891 3.858024,0.799831 3.161743,1.0816672 0.737323,3.6099314 1.097211,1.1677179 3.609559,3.7706126 4.020889,4.4792026 0.691631,1.191456 1.676792,3.083867 2.203211,5.116511 0.852697,3.896536 1.455944,6.354363 1.765381,10.54615 0.284951,3.277863 0.419954,7.384245 1.065367,8.972053 0.721704,2.999992 2.132572,6.470895 3.283982,9.458301 0.656712,1.691077 6.108124,12.89022 15.328384,7.294409 3.54918,-4.566114 4.65386,-10.164041 4.65386,-10.164041 0,0 0.69436,-28.850479 1.10867,-43.273908 h 27.32332 c 0.43605,25.30919 0.65335,50.629343 1.3656,75.929139 -0.28909,0.751677 2.86735,4.787579 0.31777,0.802678 1.38264,3.377058 4.24075,6.587533 8.75602,6.290084 2.42095,0.122623 4.86814,-1.005365 7.84322,-1.965902 4.63989,-2.097159 7.62855,-7.331837 8.94966,-12.096531 1.1083,-5.529326 1.13707,-12.147048 6.03215,-15.909128 3.08946,-2.221012 6.75516,-1.657751 10.26442,0.289477 4.74997,2.244828 8.08046,8.543049 8.06253,9.542883 0.72946,1.732239 1.32612,4.776335 1.49,5.803477 0.2491,1.115122 -0.37181,17.363083 -1.24804,23.281465 0.2363,2.082138 -8.05168,20.589718 -9.50421,28.568408 -0.91011,4.76876 0.32563,9.7708 1.71195,14.40235 0.89658,2.99538 3.11167,6.43702 4.19243,8.391 1.94136,3.61943 3.56608,7.8957 5.28877,10.88725 4.04062,8.84046 8.02035,17.79867 10.53982,27.20718 -2.2585,-6.03578 1.61143,5.68591 1.40363,7.54293 2.16008,7.3876 2.16794,15.33251 1.53748,23.01201 -0.6462,3.01699 -0.91228,5.80955 -2.03509,9.90426 -3.12629,11.68718 -10.42269,22.35738 -21.00608,28.46862 -15.06969,9.13086 -33.26263,9.38549 -50.33885,9.47158 -2.27413,-0.0751 -4.52442,-0.54618 -5.1737,1.64493 5.53606,5.01591 -2.51841,2.92621 -5.36089,3.11517 z"
       id="path300"
       sodipodi:nodetypes="ccccccccacccscccccccccccccccccccacccccccccc" /></g></svg>
