<?xml version="1.0" encoding="UTF-8" standalone="no"?>
<!-- Created with Inkscape (http://www.inkscape.org/) -->

<svg
   width="1000"
   height="1000"
   viewBox="0 0 264.58333 264.58333"
   version="1.1"
   id="svg5"
   xml:space="preserve"
   sodipodi:docname="RB-Style.svg"
   inkscape:version="1.2.2 (732a01da63, 2022-12-09)"
   xmlns:inkscape="http://www.inkscape.org/namespaces/inkscape"
   xmlns:sodipodi="http://sodipodi.sourceforge.net/DTD/sodipodi-0.dtd"
   xmlns="http://www.w3.org/2000/svg"
   xmlns:svg="http://www.w3.org/2000/svg"><sodipodi:namedview
     id="namedview7"
     pagecolor="#ffffff"
     bordercolor="#111111"
     borderopacity="1"
     inkscape:showpageshadow="0"
     inkscape:pageopacity="0"
     inkscape:pagecheckerboard="1"
     inkscape:deskcolor="#d1d1d1"
     inkscape:document-units="mm"
     showgrid="false"
     inkscape:zoom="0.13055262"
     inkscape:cx="482.56406"
     inkscape:cy="-160.85469"
     inkscape:window-width="1920"
     inkscape:window-height="1009"
     inkscape:window-x="-8"
     inkscape:window-y="-8"
     inkscape:window-maximized="1"
     inkscape:current-layer="layer1"
     showguides="false" /><defs
     id="defs2" /><g
     inkscape:label="Layer 1"
     inkscape:groupmode="layer"
     id="layer1"><path
       style="fill:#000000;stroke-width:0.0888221"
       d="m 127.99016,264.47454 c -1.60701,-0.31815 -1.82086,-0.50721 -1.82086,-1.60975 0,-0.92027 0.0322,-0.97729 0.60396,-1.06871 l 0.37308,-0.0596 v -0.68716 -0.68714 l -0.36059,-0.24989 c -0.44513,-0.30848 -0.52763,-0.45697 -0.52763,-0.94977 v -0.38776 l -2.68687,-0.10898 C 94.373054,257.48144 76.276543,252.26657 63.549631,241.36935 54.731227,233.81874 49.057696,223.8468 48.052235,214.13074 c -0.818346,-7.90789 1.215034,-14.76677 6.182238,-20.85354 0.378734,-0.4641 1.257917,-1.56328 1.953747,-2.44262 1.229602,-1.55389 2.288929,-2.89005 3.59137,-4.52993 1.652758,-2.08096 4.394497,-6.61805 6.286881,-10.40368 3.833198,-7.66813 6.855879,-19.73581 7.561425,-30.18808 0.775601,-11.49005 0.544528,-17.59887 -1.107025,-29.26693 -1.23509,-8.72574 -1.443664,-9.58268 -4.6589,-19.141186 C 65.573603,90.501707 62.909184,82.735088 61.950519,80.073241 61.113671,77.749628 59.854878,74.224227 58.810715,71.27984 57.628942,67.947426 56.312186,64.256004 55.975027,63.330251 51.720378,51.648022 50.134444,44.131984 50.10875,35.528892 c -0.02682,-8.971156 3.255148,-14.614936 8.714795,-14.986354 0.814603,-0.05542 0.857882,-0.08755 0.957591,-0.711097 l 0.05652,-0.353458 -0.271718,-0.05433 c -0.888885,-0.177776 -0.606418,-1.834064 0.415274,-2.434988 0.837046,-0.492321 3.50605,-0.363256 4.251858,0.205604 0.846387,0.645565 0.899067,2.407591 0.0766,2.561883 l -0.315933,0.05925 v 0.423463 c 0,0.355244 0.04325,0.464895 0.268364,0.680586 0.165849,0.158877 0.288618,0.383722 0.321359,0.588518 0.04831,0.302276 0.163386,0.415719 1.308237,1.289982 3.633095,2.774419 5.651737,4.995524 6.754465,7.431937 0.374054,0.826468 0.469535,1.271034 0.323228,1.505151 -1.616028,2.585929 -2.60814,6.049623 -2.936759,10.252975 -0.291738,3.731484 2.197198,10.551138 5.908982,16.190538 3.973251,6.036664 12.099952,12.864782 20.383421,17.126316 6.373406,3.278877 14.432976,6.426195 18.097536,7.067216 l 0.28866,0.05049 6e-5,-0.863795 c 4e-5,-0.475091 0.0601,-3.801592 0.13346,-7.39223 0.13672,-6.691486 0.70839,-36.049589 0.79819,-40.991461 0.0275,-1.514423 0.0677,-3.652816 0.0894,-4.751992 0.0217,-1.099171 0.0627,-3.777165 0.0911,-5.951084 0.0284,-2.173927 0.0669,-4.09249 0.0856,-4.263471 0.0186,-0.170981 0.0622,-2.649126 0.0967,-5.506976 0.0346,-2.8578578 0.0705,-5.4359243 0.0798,-5.7290377 0.009,-0.2931133 0.0237,-1.9818426 0.0319,-3.752737 L 116.13235,0 h 12.82536 12.82536 l 0.053,1.443363 c 0.0291,0.7938496 0.093,4.1813051 0.14195,7.5276848 0.0489,3.3463722 0.10889,7.0635832 0.13329,8.2604652 0.0244,1.196881 0.0654,3.455182 0.0914,5.018454 0.1793,10.84393 0.25126,14.591125 0.44608,23.227018 0.29303,12.98918 0.4642,20.470253 0.57515,25.136686 0.26403,11.106273 0.35398,15.129796 0.35426,15.844279 v 0.788903 l 3.6195,-0.05036 c 19.21952,-0.267543 28.69583,-6.053064 29.78026,-18.18159 0.13925,-1.557346 0.25241,-1.730975 1.76672,-2.710572 8.05311,-5.209539 15.43232,-0.451306 14.53473,9.372239 -0.25425,2.782651 -0.36078,3.561679 -0.72267,5.284642 -0.75405,3.590083 -2.33437,7.758853 -3.93014,10.367369 -7.63945,12.487849 -8.37727,25.194489 -2.12637,36.619869 0.83882,1.5332 1.39987,2.53632 2.1113,3.77494 0.37878,0.65951 1.28003,2.25831 2.00278,3.55289 2.52278,4.51892 5.75751,9.952 7.72083,12.96805 0.2067,0.31754 0.57108,0.87712 0.80971,1.24351 0.60565,0.92987 2.15507,3.12036 3.14139,4.44111 1.20285,1.61069 3.37651,4.93391 4.35728,6.66167 0.0416,0.0733 0.35374,0.61287 0.69365,1.19909 8.24276,14.21614 11.01652,29.09319 8.44202,45.27892 l -0.27931,1.75601 0.15218,0.16817 c 0.11167,0.12339 0.14626,0.2962 0.12993,0.64892 -0.0182,0.39186 0.013,0.51604 0.16859,0.67162 0.10497,0.10496 0.21519,0.30179 0.24495,0.43737 0.0298,0.13559 0.069,0.2954 0.0874,0.35513 0.29781,0.97197 -0.46333,2.64718 -1.17489,2.58587 l -0.31553,-0.0272 -0.72962,2.13041 c -1.28718,3.75847 -2.32191,6.26863 -3.0155,7.31543 -0.21444,0.32363 -0.60947,0.99146 -0.87784,1.48404 -2.27341,4.17287 -5.81906,9.12846 -8.98021,12.55122 l -1.43104,1.54948 v 0.62909 c 0,1.34686 -1.45345,2.54884 -2.21591,1.83254 -0.1771,-0.16639 -0.24033,-0.18098 -0.40424,-0.0932 -0.22464,0.12021 -0.54891,0.0603 -0.74724,-0.13802 -0.12453,-0.12453 -0.2043,-0.0885 -0.82783,0.37373 -5.51487,4.08855 -11.6613,7.66542 -15.70096,9.13711 -0.43968,0.16018 -1.61878,0.61033 -2.62026,1.00032 -5.45401,2.12395 -10.9972,3.70628 -15.9436,4.55116 -11.1769,1.90909 -14.17425,2.25645 -22.20556,2.57333 -1.31899,0.0521 -3.23941,0.13338 -4.26758,0.18075 -1.02816,0.0474 -1.92748,0.0865 -1.99849,0.0868 -0.0937,6.9e-4 -0.13362,0.12413 -0.14552,0.45023 -0.0187,0.51279 -0.10615,0.6494 -0.56579,0.88389 -0.3783,0.193 -0.41222,0.28863 -0.3678,1.03682 l 0.0327,0.55078 0.32541,0.10477 c 0.52725,0.16972 0.54747,0.20919 0.54747,1.06802 v 0.78702 l -0.4219,0.21345 c -1.1604,0.58702 -2.91054,0.81434 -4.24126,0.55088 z"
       id="path1147" /></g></svg>
