<?xml version="1.0" encoding="UTF-8" standalone="no"?>
<!-- Created with Inkscape (http://www.inkscape.org/) -->

<svg
   width="1000"
   height="1000"
   viewBox="0 0 264.58333 264.58333"
   version="1.1"
   id="svg5"
   xml:space="preserve"
   sodipodi:docname="FB-Shape.svg"
   inkscape:version="1.2.2 (732a01da63, 2022-12-09)"
   xmlns:inkscape="http://www.inkscape.org/namespaces/inkscape"
   xmlns:sodipodi="http://sodipodi.sourceforge.net/DTD/sodipodi-0.dtd"
   xmlns="http://www.w3.org/2000/svg"
   xmlns:svg="http://www.w3.org/2000/svg"><sodipodi:namedview
     id="namedview7"
     pagecolor="#ffffff"
     bordercolor="#111111"
     borderopacity="1"
     inkscape:showpageshadow="0"
     inkscape:pageopacity="0"
     inkscape:pagecheckerboard="1"
     inkscape:deskcolor="#d1d1d1"
     inkscape:document-units="mm"
     showgrid="false"
     inkscape:zoom="0.36925856"
     inkscape:cx="872.0177"
     inkscape:cy="628.28605"
     inkscape:window-width="1920"
     inkscape:window-height="1009"
     inkscape:window-x="-8"
     inkscape:window-y="-8"
     inkscape:window-maximized="1"
     inkscape:current-layer="layer1" /><defs
     id="defs2" /><g
     inkscape:label="Layer 1"
     inkscape:groupmode="layer"
     id="layer1"><path
       style="fill:#000000;stroke-width:0.137811"
       d="m 70.592141,264.51451 c -0.1516,-0.0257 -1.36089,-0.10714 -2.68733,-0.18099 -14.00171,-0.77946 -21.59687,-5.99021 -23.78613,-16.31881 l -0.35523,-1.67596 -0.0728,-2.68733 c -0.26218,-9.68172 1.67804,-14.89849 15.35082,-41.27459 18.85917,-36.38118 24.48389,-55.73787 21.80488,-75.03846 -1.06617,-7.68112 -3.20709,-14.21781 -8.32767,-25.42625 -0.20777,-0.45478 -0.90464,-1.974157 -1.5486,-3.376393 -0.64397,-1.402231 -1.31156,-2.85959 -1.48356,-3.238575 -0.17199,-0.37898 -0.51026,-1.123163 -0.75172,-1.653735 -2.01065,-4.418142 -3.87012,-9.964386 -4.66658,-13.918981 -0.56216,-2.791321 -0.63435,-3.563948 -0.63726,-6.821681 l -0.003,-3.238575 0.2486,-1.2403 c 1.55399,-7.753197 5.55086,-13.693161 11.84279,-17.600191 3.66241,-2.274207 10.34524,-4.795716 16.93966,-6.391531 2.7953,-0.67645 8.745149,-2.152826 10.174219,-2.524597 7.1895,-1.870346 14.22182,-6.871496 16.50253,-11.736049 l 0.4245,-0.905401 0.0784,-2.333174 c 0.0777,-2.313033 0.14436,-6.08628 0.28819,-16.321056 0.041,-2.9181663 0.11204,-5.8328794 0.15786,-6.4771505 0.0458,-0.6442711 0.0872,-1.822557 0.0921,-2.6184201 l 0.009,-1.51506033 8.14951,-0.001041725 h 7.51074 0.13394 0.96659 2.13524 l 4.20605,0.005781575 3.03185,0.00567741 c 0,0 0.0622,-0.01020891 0.45503,-0.00906301 C 146.83642,0.0027762 146.92316,0 146.97411,0 c 0.0568,0 0.10787,0.60464906 0.11338,1.3436651 0.0292,3.9225726 0.30013,16.1899229 0.5464,31.5244219 l 0.0797,4.961221 0.26678,1.664048 c 0.48826,3.04558 2.0262,6.227074 3.91613,8.101128 8.04787,7.980315 20.24586,7.968226 28.05924,-0.02781 5.56573,-5.695845 8.98517,-12.783604 10.80206,-22.390375 0.5686,-3.006505 0.63486,-3.16205 1.84912,-4.341315 1.41037,-1.36974 5.21539,-4.297589 5.58512,-4.297589 0.0372,0 0.42766,-0.210335 0.86754,-0.467407 1.98981,-1.162858 4.5353,-1.68782 7.5949,-1.566319 l 1.74923,0.06947 1.30921,0.4278 c 6.50236,2.12472 10.38762,7.750578 11.0364,15.980677 l 0.16507,2.093948 -0.16169,3.065924 c -0.0889,1.686263 -0.19392,3.282984 -0.2333,3.54827 -1.59226,10.723174 -5.75467,24.863486 -15.05031,51.128134 -10.69387,30.215278 -11.73793,42.734438 -5.28681,63.393378 1.48707,4.76216 2.78451,8.06211 8.66938,22.04987 7.51065,17.85201 8.54439,20.81127 8.99143,25.7394 0.54073,5.96076 -1.57226,10.6266 -7.02768,15.51828 -1.85622,1.66442 -8.13359,6.14356 -11.90151,8.49219 -0.89902,0.56037 -1.6983,1.15874 -1.7762,1.32972 -0.0779,0.17098 -0.35564,0.41243 -0.61719,0.53654 -0.26155,0.12411 -0.58774,0.33785 -0.72485,0.47496 -0.13711,0.1371 -0.45715,0.29439 -0.7112,0.34953 -0.25406,0.0551 -0.49664,0.15457 -0.53908,0.22094 -0.0424,0.0664 -0.3215,0.14624 -0.62015,0.17747 -0.42748,0.0447 -2.99941,1.18026 -4.19501,1.85219 -0.11369,0.0639 -0.60981,0.2567 -1.10249,0.42844 -0.49267,0.17175 -1.42291,0.49601 -2.06717,0.7206 -1.59469,0.55591 -4.12242,1.62263 -4.56906,1.92818 -0.2012,0.13765 -0.44697,0.25027 -0.54618,0.25027 -0.1519,0 -2.16121,0.83428 -4.32486,1.79574 -0.30319,0.13473 -2.00861,0.84618 -3.78982,1.58101 -1.78122,0.73482 -3.42462,1.41513 -3.65201,1.51179 -1.5414,0.65521 -6.2397,2.51338 -6.82168,2.69795 -0.18949,0.0601 -1.49181,0.58203 -2.89405,1.15984 -2.58684,1.06596 -3.96805,1.598 -6.35681,2.44865 -1.73947,0.61943 -13.04526,4.35281 -15.36769,5.07468 l -1.81073,0.56281 -0.0854,0.42716 c -0.0527,0.26337 -0.0139,0.53497 0.10129,0.70836 l 0.18672,0.28122 0.62952,-0.0387 c 0.3854,-0.0237 0.80025,0.0496 1.0698,0.18897 l 0.44028,0.22768 -0.0863,0.43167 c -0.29637,1.48186 -2.19044,2.46079 -4.82191,2.49215 l -1.39211,0.0166 -0.44756,-0.31923 c -0.87712,-0.62562 -0.67684,-1.34765 0.52403,-1.88918 l 0.54368,-0.24515 -0.002,-0.35806 c -10e-4,-0.19692 -0.0582,-0.44674 -0.12684,-0.55515 l -0.12473,-0.1971 -1.01011,0.30893 c -0.55556,0.16991 -1.19615,0.36264 -1.42354,0.4283 -0.22739,0.0657 -2.14986,0.64359 -4.27216,1.28431 -3.40131,1.02684 -7.18699,2.10796 -11.92071,3.40433 -2.00206,0.54827 -5.63523,1.43404 -6.95949,1.69672 -0.60637,0.12029 -1.5056,0.31027 -1.99827,0.4222 -5.472069,1.24317 -8.200099,1.8268 -10.404779,2.22592 -1.44014,0.26071 -2.95951,0.53718 -3.37639,0.61437 -5.73998,1.0628 -18.72565,2.21066 -20.87847,1.84554 z"
       id="path1351"
       sodipodi:nodetypes="csscssssssssccssssscssssccccccccsssscsssssssscsscscsssssssssssssssssssssssscsscsscsscssccscssssscsscc" /></g></svg>
