<?xml version="1.0" encoding="UTF-8" standalone="no"?>
<!-- Generator: Adobe Illustrator 21.1.0, SVG Export Plug-In . SVG Version: 6.00 Build 0)  -->

<svg
   version="1.1"
   id="Layer_1"
   x="0px"
   y="0px"
   viewBox="0 0 42.799999 42.8"
   xml:space="preserve"
   sodipodi:docname="instagram.svg"
   width="42.799999"
   height="42.799999"
   inkscape:version="1.2.2 (732a01da63, 2022-12-09)"
   xmlns:inkscape="http://www.inkscape.org/namespaces/inkscape"
   xmlns:sodipodi="http://sodipodi.sourceforge.net/DTD/sodipodi-0.dtd"
   xmlns="http://www.w3.org/2000/svg"
   xmlns:svg="http://www.w3.org/2000/svg"><defs
   id="defs13" /><sodipodi:namedview
   id="namedview11"
   pagecolor="#ffffff"
   bordercolor="#111111"
   borderopacity="1"
   inkscape:showpageshadow="0"
   inkscape:pageopacity="0"
   inkscape:pagecheckerboard="1"
   inkscape:deskcolor="#d1d1d1"
   showgrid="false"
   inkscape:zoom="7.6759259"
   inkscape:cx="9.0542823"
   inkscape:cy="29.312425"
   inkscape:window-width="1920"
   inkscape:window-height="1009"
   inkscape:window-x="-8"
   inkscape:window-y="-8"
   inkscape:window-maximized="1"
   inkscape:current-layer="Layer_1" />
<style
   type="text/css"
   id="style2">
	.st0{fill:none;}
</style>
<g
   id="g8"
   transform="translate(-5.3,-4.9)">
	
	<path
   d="m 48.1,26.3 c 0,4.3 0,7.2 -0.1,8.8 -0.2,3.9 -1.3,6.9 -3.5,9 -2.2,2.1 -5.1,3.3 -9,3.5 -1.6,0.1 -4.6,0.1 -8.8,0.1 -4.3,0 -7.2,0 -8.8,-0.1 C 14,47.4 11,46.3 8.9,44.1 6.8,42 5.6,39 5.4,35.1 5.3,33.5 5.3,30.5 5.3,26.3 c 0,-4.2 0,-7.2 0.1,-8.8 0.2,-3.9 1.3,-6.9 3.5,-9 2.1,-2.1 5.1,-3.3 9,-3.5 1.6,-0.1 4.6,-0.1 8.8,-0.1 4.3,0 7.2,0 8.8,0.1 3.9,0.2 6.9,1.3 9,3.5 2.1,2.2 3.3,5.1 3.5,9 0,1.6 0.1,4.5 0.1,8.8 z M 28.8,8.7 c -1.3,0 -2,0 -2.1,0 -0.1,0 -0.8,0 -2.1,0 -1.3,0 -2.3,0 -2.9,0 -0.7,0 -1.6,0 -2.7,0.1 -1.1,0 -2.1,0.1 -2.9,0.3 -0.8,0.1 -1.5,0.3 -2,0.5 -0.9,0.4 -1.7,0.9 -2.5,1.6 -0.7,0.7 -1.2,1.5 -1.6,2.5 -0.2,0.5 -0.4,1.2 -0.5,2 -0.1,0.8 -0.2,1.7 -0.3,2.9 0,1.1 -0.1,2 -0.1,2.7 0,0.7 0,1.7 0,2.9 0,1.3 0,2 0,2.1 0,0.1 0,0.8 0,2.1 0,1.3 0,2.3 0,2.9 0,0.7 0,1.6 0.1,2.7 0,1.1 0.1,2.1 0.3,2.9 0.2,0.8 0.3,1.5 0.5,2 0.4,0.9 0.9,1.7 1.6,2.5 0.7,0.7 1.5,1.2 2.5,1.6 0.5,0.2 1.2,0.4 2,0.5 0.8,0.1 1.7,0.2 2.9,0.3 1.2,0.1 2,0.1 2.7,0.1 0.7,0 1.7,0 2.9,0 1.3,0 2,0 2.1,0 0.1,0 0.8,0 2.1,0 1.3,0 2.3,0 2.9,0 0.7,0 1.6,0 2.7,-0.1 1.1,0 2.1,-0.1 2.9,-0.3 0.8,-0.1 1.5,-0.3 2,-0.5 0.9,-0.4 1.7,-0.9 2.5,-1.6 0.7,-0.7 1.2,-1.5 1.6,-2.5 0.2,-0.5 0.4,-1.2 0.5,-2 0.1,-0.8 0.2,-1.7 0.3,-2.9 0,-1.1 0.1,-2 0.1,-2.7 0,-0.7 0,-1.7 0,-2.9 0,-1.3 0,-2 0,-2.1 0,-0.1 0,-0.8 0,-2.1 0,-1.3 0,-2.3 0,-2.9 0,-0.7 0,-1.6 -0.1,-2.7 0,-1.1 -0.1,-2.1 -0.3,-2.9 -0.1,-0.8 -0.3,-1.5 -0.5,-2 C 43,12.8 42.5,12 41.8,11.2 41.1,10.5 40.3,10 39.3,9.6 38.8,9.4 38.1,9.2 37.3,9.1 36.5,9 35.6,8.9 34.4,8.8 c -1.1,0 -2,-0.1 -2.7,-0.1 -0.6,0 -1.6,0 -2.9,0 z m 5.6,9.8 c 2.1,2.1 3.2,4.7 3.2,7.8 0,3.1 -1.1,5.6 -3.2,7.8 -2.1,2.1 -4.7,3.2 -7.8,3.2 -3.1,0 -5.6,-1.1 -7.8,-3.2 -2.1,-2.1 -3.2,-4.7 -3.2,-7.8 0,-3.1 1.1,-5.6 3.2,-7.8 2.1,-2.1 4.7,-3.2 7.8,-3.2 3.1,0 5.7,1 7.8,3.2 z m -2.7,12.8 c 1.4,-1.4 2.1,-3.1 2.1,-5 0,-1.9 -0.7,-3.7 -2.1,-5.1 -1.4,-1.4 -3.1,-2.1 -5.1,-2.1 -2,0 -3.7,0.7 -5.1,2.1 -1.4,1.4 -2.1,3.1 -2.1,5.1 0,2 0.7,3.7 2.1,5 1.4,1.4 3.1,2.1 5.1,2.1 2,0 3.7,-0.7 5.1,-2.1 z M 39.9,13 c 0.5,0.5 0.8,1.1 0.8,1.8 0,0.7 -0.3,1.3 -0.8,1.8 -0.5,0.5 -1.1,0.8 -1.8,0.8 -0.7,0 -1.3,-0.3 -1.8,-0.8 -0.5,-0.5 -0.8,-1.1 -0.8,-1.8 0,-0.7 0.3,-1.3 0.8,-1.8 0.5,-0.5 1.1,-0.8 1.8,-0.8 0.7,0 1.3,0.3 1.8,0.8 z"
   id="path6" />
</g>
</svg>
