<?xml version="1.0" encoding="UTF-8" standalone="no"?>
<!-- Created with Inkscape (http://www.inkscape.org/) -->

<svg
   width="1542.0491mm"
   height="658.74414mm"
   viewBox="0 0 1542.0491 658.74414"
   version="1.1"
   id="svg5"
   sodipodi:docname="RiftWood logo.svg"
   xml:space="preserve"
   inkscape:version="1.2.2 (732a01da63, 2022-12-09)"
   xmlns:inkscape="http://www.inkscape.org/namespaces/inkscape"
   xmlns:sodipodi="http://sodipodi.sourceforge.net/DTD/sodipodi-0.dtd"
   xmlns="http://www.w3.org/2000/svg"
   xmlns:svg="http://www.w3.org/2000/svg"><sodipodi:namedview
     id="namedview7"
     pagecolor="#ffffff"
     bordercolor="#111111"
     borderopacity="1"
     inkscape:showpageshadow="0"
     inkscape:pageopacity="0"
     inkscape:pagecheckerboard="1"
     inkscape:deskcolor="#d1d1d1"
     inkscape:document-units="mm"
     showgrid="false"
     inkscape:zoom="0.088388348"
     inkscape:cx="814.58701"
     inkscape:cy="418.60721"
     inkscape:window-width="1920"
     inkscape:window-height="1009"
     inkscape:window-x="-8"
     inkscape:window-y="-8"
     inkscape:window-maximized="1"
     inkscape:current-layer="layer1" /><defs
     id="defs2"><inkscape:path-effect
       effect="bspline"
       id="path-effect3387"
       is_visible="true"
       lpeversion="1"
       weight="33.333333"
       steps="2"
       helper_size="0"
       apply_no_weight="true"
       apply_with_weight="true"
       only_selected="false" /><inkscape:path-effect
       effect="envelope"
       id="path-effect468"
       is_visible="true"
       lpeversion="1"
       yy="true"
       xx="true"
       bendpath1="m 176.77681,-510.72824 c 535.16462,143.39693 941.21809,120.14795 1334.83329,120.14795"
       bendpath2="M 1511.6101,-390.58029 V -17.44338"
       bendpath3="M 176.77681,157.38894 C 437.20081,7.0330717 884.62491,-143.22415 1511.6101,-48.970521"
       bendpath4="M 176.77681,-333.25822 V -17.44338"
       bendpath1-nodetypes="cc"
       bendpath3-nodetypes="cc"
       bendpath4-nodetypes="cc" /></defs><g
     inkscape:label="Layer 1"
     inkscape:groupmode="layer"
     id="layer1"
     transform="translate(-12.053424,319.79493)"><path
       id="path3313"
       style="fill:#000000;stroke:#000000;stroke-width:0.264583px;stroke-linecap:butt;stroke-linejoin:miter;stroke-opacity:1"
       d="m 393.11833,-319.65191 c -16.20358,-0.21265 -16.88272,2.79084 -19.89284,4.05092 -3.01027,1.26013 -5.10528,2.34235 -7.3086,3.51503 -6.15817,3.27759 -12.92438,7.41194 -21.68549,13.08396 -7.34028,4.59862 -13.12845,8.42921 -18.26401,12.28297 -2.60971,1.95835 -4.99973,3.79336 -8.17262,6.85953 -2.28684,2.20991 -6.84056,1.79345 -10.68772,11.40395 -6.20916,-9.47997 -15.54189,-26.54853 -44.7859,-28.15332 -1.96668,-0.10791 -3.92185,-0.0994 -5.82445,0.016 -24.67062,1.49649 -23.90742,7.08491 -30.31133,11.07013 -6.40391,3.98521 -12.99949,8.68812 -20.7393,14.54019 -3.71137,2.80616 -8.44591,6.70978 -12.63851,10.03143 -5.79746,-7.21275 -12.96106,-14.04983 -22.91798,-19.90627 l -28.00139,-16.46773 -24.44554,21.39094 c -23.771843,20.8004 -45.734041,40.61116 -66.350985,59.25271 l -13.923697,12.5889 -0.849044,18.75028 c -0.296112,6.5309 -0.453878,12.83812 -0.496611,18.92029 l -0.290421,41.42021 25.609289,2.3058 c 0.152521,1.10488 0.329565,2.10035 0.434599,3.37189 8.521129,103.156675 3.708705,129.729758 5.775358,246.8733 0.247315,14.01809 -0.835094,26.27115 -1.881539,33.83101 L 12.306436,161.48408 135.81208,338.80969 1471.9278,202.30226 1553.9085,11.092227 1511.7994,7.627839 c -1.976,-45.284528 -3.3542,-66.791249 -4.2928,-121.288199 -0.5483,-31.85496 -12.1451,-59.25861 -31.7913,-100.41351 -10.1584,-21.27978 -19.5156,-37.64344 -29.6499,-50.93488 -5.0671,-6.64573 -10.193,-12.59754 -17.5844,-18.42471 -7.3915,-5.82717 -18.0389,-13.66214 -37.1502,-12.85762 -29.6487,1.24809 -51.0103,12.19587 -85.6651,28.65355 l -27.5533,13.08602 1.9487,30.44104 c 0.2663,4.15696 0.5101,8.36541 0.7323,12.60905 l 34.9947,19.93315 c 0,0 10.758,4.27002 11.1435,15.88792 -4.1962,1.68912 -9.0834,3.59214 -12.5889,5.07256 -0.6974,0.29455 -1.2373,0.54548 -1.9063,0.83044 -0.4882,-0.54004 -0.9151,-1.14539 -1.4082,-1.67897 -6.5504,-7.25802 -12.7753,-13.48591 -20.5755,-19.23035 -7.9107,-5.8258 -17.5883,-13.52037 -37.5734,-13.09946 -20.6366,0.43478 -21.3718,3.79907 -32.3458,7.50187 -10.9741,3.70278 -24.9654,8.83328 -42.706,15.54324 -2.8226,1.0441 -5.5524,2.0584 -8.1664,3.03547 -13.4572,5.03016 -23.1625,8.87506 -31.5242,12.39459 -1.0694,-1.15638 -2.0483,-2.42661 -3.1378,-3.55069 -6.6422,-7.01994 -12.9394,-13.06153 -20.7785,-18.61488 -7.9523,-5.63357 -17.6757,-12.96016 -37.16,-12.50932 -11.8991,0.27542 -14.3228,1.96095 -19.773,3.50418 -5.4503,1.54325 -11.4625,3.48921 -18.6655,5.9614 -10.1136,3.47134 -22.5082,7.98532 -37.375,13.58573 -8.14796,3.00382 -15.15861,5.65121 -21.60436,8.13439 -0.0173,-2.25022 -0.0518,-4.24973 -0.0672,-6.50658 -0.21819,-31.72555 -10.97891,-63.36346 -32.3696,-86.28156 -10.98737,-11.7719 -27.05083,-25.31617 -51.62734,-25.71677 l 0.004,0.002 c -14.23547,-0.23281 -12.64193,1.5642 -14.14694,2.03192 -1.50499,0.46771 -2.15944,0.72812 -2.71663,0.93948 -1.11436,0.42271 -1.59909,0.63481 -2.07842,0.83922 -0.95867,0.40883 -1.64201,0.71744 -2.45825,1.08986 -1.63247,0.74486 -3.61242,1.67323 -6.17172,2.89285 -3.88748,1.85255 -10.29975,4.99799 -16.79019,8.18813 -2.00104,-1.88201 -4.12408,-3.76342 -6.66315,-5.73764 -5.42728,-4.21989 -12.01581,-11.56757 -31.7252,-12.14706 h -0.006 c -15.26583,-0.44907 -13.84529,1.7233 -15.5019,2.27221 -1.65688,0.54902 -2.36183,0.8512 -2.95227,1.09296 -1.18086,0.48354 -1.63834,0.70395 -2.06706,0.90279 -0.85746,0.39767 -1.3172,0.62832 -1.83245,0.88521 -1.03048,0.51378 -2.07471,1.0528 -3.39307,1.74202 -2.63672,1.3784 -6.24061,3.30217 -10.93267,5.86372 -3.60895,1.97026 -10.87966,6.16994 -15.75407,8.89713 -6.02956,-7.17555 -13.1845,-13.92291 -22.27616,-19.32233 l -22.73298,-13.49995 -22.85804,13.28549 c -10.74392,6.24456 -21.36452,12.57619 -31.88436,18.98954 -8.16617,4.97857 -16.25615,9.99709 -24.27914,15.05334 l -15.77113,9.93945 -15.35306,0.22996 c -0.26674,-1.41505 -0.56433,-2.79995 -0.81287,-4.2323 l -0.0677,-0.39119 -0.0755,-0.39016 c -0.89077,-4.64554 -2.04753,-8.93525 -3.33881,-13.15837 -1.58345,-5.81947 -4.21459,-12.91768 -11.09648,-20.79098 -7.70783,-8.81821 -22.72188,-16.36141 -35.22834,-16.83359 -19.49272,-0.73597 -23.63958,3.71726 -31.87971,7.25175 -8.24013,3.53449 -16.98747,8.04059 -27.24072,13.8312 -8.33341,4.70634 -17.58635,10.27102 -27.75231,16.71991 -8.34512,5.19747 -15.66589,10.08362 -22.40845,14.87351 -0.26202,-8.40763 -1.29966,-16.77752 -3.24993,-24.89202 -1.07327,-5.16106 -2.0764,-9.8801 -4.68757,-16.53905 -1.41967,-3.62042 -3.01584,-7.97485 -8.28528,-14.51901 -5.26923,-6.54389 -18.2247,-17.47319 -35.99574,-17.70693 z m 463.74534,53.96622 0.87385,0.8971 c -0.25733,-0.27141 -0.52105,-0.52031 -0.7767,-0.78858 -0.0334,-0.0334 -0.0638,-0.0752 -0.0972,-0.10852 z m -88.00806,9.371 0.64905,0.98186 c -0.12619,-0.197 -0.28378,-0.38908 -0.41134,-0.58602 -0.0822,-0.12226 -0.15536,-0.27439 -0.23771,-0.39584 z"
       transform="translate(0,1.3125e-5)"
       sodipodi:nodetypes="csscsscscssccccccccccsscccccccssssccccccsccssscsccsssscccsccssssscsccsssssscccsscccccccsssscccsscccccsccccc" /><path
       id="path3255"
       style="color:#000000;font-size:453.938px;font-family:'Pirata One';-inkscape-font-specification:'Pirata One, Normal';letter-spacing:-4.35504px;display:inline;fill:#ffffff;stroke-width:90;stroke-dasharray:none;-inkscape-stroke:none;paint-order:stroke fill markers"
       d="m 392.52819,-274.65671 c -0.74304,-0.01 -2.57007,0.75082 -5.4684,2.2934 -4.07822,2.17057 -10.37532,5.94752 -18.63607,11.30113 -13.73315,8.59104 -20.53377,13.81671 -20.77496,15.46727 -2.44817,16.75351 -4.02309,32.40556 -5.00589,46.99093 -0.93176,13.82747 0.43564,24.23086 3.51399,31.6792 3.38497,7.00494 6.53315,10.22581 9.15397,9.9937 2.55687,-0.22644 9.29559,-3.69016 20.45042,-10.39264 0.46326,-0.27837 0.93424,-0.56258 1.41284,-0.85214 12.03784,-7.7019 18.19815,-12.17292 18.25728,-13.49324 0.70975,-15.84625 2.05956,-32.93473 4.46847,-51.26663 1.19118,-9.06504 0.66424,-18.16514 -1.56476,-27.43813 -1.93886,-9.31709 -3.66892,-14.25483 -5.80689,-14.28285 z m 160.3928,20.95376 c -4.73439,-0.17875 -16.68217,4.78699 -35.29243,15.29726 -7.59128,4.28719 -16.26613,9.49212 -25.95034,15.63936 -33.27309,20.70856 -49.2672,35.83368 -49.60421,43.53481 -1.26375,28.87725 -0.50546,56.28422 0.3054,79.712956 -8.13029,4.904179 -18.41175,11.115018 -26.54205,16.019178 -0.0967,-2.388342 0.5287,13.204243 0.43202,10.81588 8.96394,-0.841046 17.95603,-1.671654 26.98698,-2.492358 2.28643,64.390876 -3.73185,118.56813 2.38435,191.618794 0.55234,6.59711 4.10364,13.39697 10.76524,20.14089 6.62669,6.37889 13.58945,10.49995 20.67006,12.30727 11.98901,-13.73832 24.76315,-26.4816 37.95219,-38.38164 0.92699,-0.83638 1.8563,-1.6688 2.78795,-2.49753 -0.34077,-3.69227 -0.62776,-7.35197 -0.86971,-10.975035 -1.05039,-0.02795 -2.06092,-0.126683 -3.03134,-0.29714 -10.52874,-1.850034 -16.41162,-12.261575 -16.61035,-30.182654 -0.56253,-50.72489 1.12537,-95.501099 -0.385,-146.447393 -0.0212,0.0016 15.52977,-1.303004 15.50862,-1.301209 -0.007,6e-4 7.98008,-0.658982 7.97264,-0.658359 7.42435,-4.593874 14.91165,-9.218521 22.38726,-13.822414 -0.0994,-3.859877 -0.19861,-7.803076 -0.29043,-11.745536 -10.27956,0.73799 -20.5274,1.49481 -30.74128,2.27118 -5.19217,0.39436 -10.37466,0.79378 -15.5484,1.19838 -0.66331,-23.92856 -1.21198,-51.73833 0.35243,-80.74598 0.65839,-12.20793 4.05592,-18.66974 9.48263,-18.77922 2.61998,-0.0529 4.75568,3.3786 6.67815,10.03867 1.21838,4.22047 2.3455,9.70351 3.48143,16.32252 3.20088,16.88155 7.71017,24.55218 12.14758,24.31893 1.52208,-0.08 11.82767,-6.83643 31.56759,-20.22926 8.46725,-5.90095 15.27645,-10.23481 20.33002,-13.00024 0.2073,-3.78077 0.45111,-7.60931 0.73794,-11.48354 -6.08122,0.0911 -10.92633,-4.44277 -13.91439,-14.11232 -1.65011,-4.84524 -3.20782,-10.01788 -4.62298,-15.51636 -0.84754,-4.02082 -1.63717,-8.11337 -2.36006,-12.27935 -0.50533,-2.63542 -1.2533,-5.51664 -2.22778,-8.68629 -0.89698,-3.61641 -2.50964,-5.5105 -4.93974,-5.60225 z m -293.06532,2.02572 c -0.21132,-0.0116 -0.42258,-0.0107 -0.63407,0.002 -6.65558,0.40372 -36.63652,22.75163 -83.20423,63.23128 0.56483,-8.81544 -2.49038,-18.5646 -8.92555,-29.86071 -6.45955,-11.33896 -12.83046,-19.53674 -20.01738,-23.76392 -23.4518,20.52036 -45.21382,40.14916 -65.802188,58.76489 -0.26943,5.94242 -0.412314,11.67298 -0.451132,17.19791 16.077796,1.44785 23.52948,17.97928 25.60257,43.07593 8.68889,105.187503 3.87719,134.018663 5.91953,249.78423 0.4,22.67217 -0.87161,43.03385 -5.72057,56.81566 -5.63739,14.60888 -11.813759,22.75161 -20.499531,22.76863 5.013695,9.70681 10.450279,19.78855 16.372641,30.22451 32.05327,-29.61558 67.83451,-55.65327 104.93106,-78.93161 -0.84059,-7.43962 -1.44703,-14.62026 -1.87171,-21.53822 -9.63846,0.52727 -16.24796,-2.85724 -19.56315,-9.69451 -3.33138,-6.87073 -5.0517,-18.07949 -4.63434,-32.387164 0.73561,-25.218581 2.74561,-46.722049 3.83284,-66.596965 2.09188,-0.520894 4.18363,-1.044576 6.2761,-1.570969 0.43396,5.979959 2.79033,15.344984 7.00423,28.712461 3.73359,11.843876 10.89586,32.915168 20.08042,55.912867 10.25165,25.16912 21.20149,45.61824 32.07299,60.35239 10.67203,14.46384 19.93376,21.5684 26.29451,20.68866 10.56873,-1.46174 27.75474,-20.17804 61.8138,-50.46565 -0.74825,-6.40135 -1.31223,-12.63784 -1.73168,-18.70326 -11.39109,1.24814 -22.80938,-2.3068 -34.10644,-10.5301 -12.58217,-9.7598 -23.68506,-24.138833 -33.44137,-42.021211 -9.83295,-18.022814 -17.64057,-38.25972 -25.86561,-61.2220981 41.66695,-15.2167392 62.57555,-24.6487359 62.54037,-27.0748419 -0.61754,-42.608538 -8.19638,-85.451389 -6.36292,-147.810609 0.43523,-14.80303 -5.42059,-31.36987 -16.45636,-52.40094 -10.37822,-20.55461 -16.90221,-32.59923 -23.45283,-32.95871 z m 1133.36863,0.34623 c -12.7929,0.53852 -35.2987,8.69291 -68.2532,24.34322 0.2788,4.35328 0.5309,8.73625 0.7612,13.13305 -0.077,0.002 15.1926,-0.48674 15.1158,-0.48425 6.3926,-0.2072 13.2377,4.26987 20.3155,13.56919 7.1891,9.44544 16.361,25.50249 27.8019,49.28331 -50.6669,19.13735 -76.2477,29.57296 -76.1736,32.53651 0.9219,36.85088 3.4018,120.2268723 3.4071,146.360059 0,7.329465 2.8507,14.377776 8.5421,21.316524 5.9927,6.721329 11.8125,11.899626 17.479,15.675014 5.995,3.595392 10.0627,5.48618 12.2272,5.667354 4.8257,0.403939 26.3326,-4.304614 58.5447,-17.926554 -0.016,4.092053 2.6817,8.624372 8.0775,13.68392 5.6985,4.840849 12.0167,8.693313 18.9586,11.587922 31.995,-11.105089 48.0942,-18.839724 50.213,-18.99109 -0.043,-2.852306 -0.1029,-5.732981 -0.1779,-8.635644 -6.9709,-1.084192 -12.5128,-4.603542 -16.614,-10.562146 -3.8106,-5.964419 -5.8427,-12.039883 -6.1025,-18.307408 -2.2977,-55.444406 -3.7925,-73.456162 -4.8317,-133.803721 -0.2486,-14.443 -9.1357,-43.52504 -27.4081,-81.80225 -18.5675,-38.89513 -33.6693,-56.98878 -41.8822,-56.64304 z m -678.08531,3.14968 c -10.45869,6.07877 -20.8085,12.24814 -31.07303,18.50584 -7.96733,4.85735 -15.86637,9.7579 -23.70967,14.70092 -0.41349,4.11258 -0.77255,8.18205 -1.08417,12.20597 12.38692,2.98937 19.08798,11.59467 20.72793,25.17521 0.32805,2.71646 0.4535,5.6335 0.38137,8.74417 -1.97495,85.183472 -0.38798,153.501295 0.42271,220.234618 0.11599,9.547898 4.61591,19.488393 13.79142,29.171863 9.48406,9.391676 19.04837,12.821727 27.8908,11.138854 9.08744,-1.729501 28.90272,-13.440969 62.96825,-32.263146 10.13289,13.088883 22.95276,17.662893 37.55636,15.623335 6.1215,-0.854936 18.5746,-5.044132 38.52582,-11.997717 11.19222,-3.901085 12.14536,-4.243637 23.33759,-8.144722 33.55973,-11.675009 50.74132,-17.722368 50.77881,-19.616893 1.10386,-55.782973 -0.52898,-130.924682 -1.07487,-210.293612 -0.15862,-23.06188 -6.94675,-41.61403 -20.26852,-55.88704 -6.9505,-7.44678 -13.31969,-11.32657 -19.46239,-11.42669 -0.30714,-0.005 -9.97215,4.49941 -28.97394,13.90871 -1.1321,0.54229 -2.23173,1.0706 -3.2985,1.5844 -16.81522,8.09841 -25.50954,12.59074 -26.13175,13.19661 -1.11941,-7.09592 -4.92446,-13.78583 -11.36157,-20.20756 -6.4169,-6.76815 -10.77723,-10.31528 -13.57385,-10.39729 -0.30671,-0.009 -18.56382,9.45713 -53.76261,29.85193 -0.31394,3.77106 -0.58549,7.51761 -0.81959,11.23496 15.02761,3.32514 22.01828,14.11523 21.75681,31.71797 -1.22974,82.78868 0.11088,154.146596 0.4067,216.056065 -5.00796,2.007721 -9.85837,3.310328 -14.55054,3.878313 -18.46363,2.235011 -27.87801,-8.100398 -27.50788,-32.744255 0.99156,-66.019675 -5.80314,-138.810803 1.39113,-227.121533 0.48153,-5.91082 -1.84327,-12.38317 -6.80992,-19.70733 -4.92058,-7.68147 -10.30915,-13.46139 -16.4729,-17.12195 z m 120.98073,50.8863 c 10.29614,0.11989 18.56002,1.57936 24.80314,4.32687 2.65472,1.16824 4.94696,2.57049 6.87917,4.2049 6.47644,5.16367 9.65968,15.75258 9.81129,31.45235 0.69947,72.445698 1.38038,138.925577 0.69866,192.037893 -5.44607,2.134055 -11.12641,3.581425 -17.01085,4.333586 -0.96657,0.123477 -1.93956,0.228681 -2.91817,0.314707 -6.92979,0.609181 -12.46223,-1.864458 -16.48582,-7.728729 -3.71408,-6.135808 -5.48566,-13.094635 -5.34541,-20.884507 1.07338,-59.620009 -3.25457,-130.16132 -0.43201,-208.05707 z m -196.57508,2.38539 c 0.13866,-0.002 -13.09395,0.16916 -12.95528,0.16742 -3.59997,17.08491 -11.77223,32.57759 -25.09305,47.34492 -12.93679,14.32572 -23.86722,21.66711 -33.03725,22.23379 -0.68045,3.40223 -3.50639,17.70549 -4.18683,21.10775 6.2568,-0.4426 12.52463,-0.87867 18.80351,-1.30793 1.53209,70.393082 -2.87676,128.828884 1.79627,194.875443 0.38457,5.435325 3.79473,10.851187 10.29239,16.007807 6.47156,4.86001 13.31657,7.82277 20.37912,8.96431 13.83012,-12.03474 28.44046,-23.23033 43.36944,-33.722488 -0.20792,-3.000292 -0.37916,-6.000759 -0.51986,-8.997383 -12.69577,-0.110816 -19.53174,-8.633854 -19.58123,-25.661999 -0.14452,-49.7151111 0.72649,-99.01663 -0.3514,-155.53831 6.33731,-0.38958 12.68359,-0.77268 19.03863,-1.14929 1.38833,-7.66474 2.8547,-15.7711 4.32118,-23.69002 -7.91376,0.38659 -15.81676,0.78254 -23.70553,1.18804 -0.16441,-19.283 0.0151,-40.25225 1.42989,-61.82206 z m -437.75519,25.19123 c 17.67532,0.13961 25.54549,17.11053 27.04434,44.86341 2.28858,42.375056 7.08308,74.462016 7.92045,106.214695 0.13969,5.312167 -5.86953,10.8879551 -17.9617,16.5504148 -12.09071,5.368648 -23.0454,8.2077824 -32.78352,8.6330676 0.97381,-47.1459364 -10.62838,-88.6423594 -10.94403,-162.8892774 8.22147,-7.89391 15.95057,-12.37653 23.0575,-13.17388 1.26654,-0.1421 2.4886,-0.20728 3.66695,-0.19789 z m 1052.03915,10.92284 c -5.3171,0.11203 -25.075,6.90538 -60.0795,20.14503 -2.8956,1.07072 -5.6716,2.10231 -8.3297,3.09593 -29.4303,11.00073 -44.2431,17.31769 -44.1916,19.1611 1.3157,47.096654 2.2471,93.723742 1.6267,130.277318 -0.2279,13.429982 4.2476,23.864168 13.5315,32.265216 9.4926,8.316067 18.0888,12.320028 25.5282,12.614734 1.1234,0.04451 2.5256,0.0248 4.2038,-0.05891 9.416,-0.469546 30.5966,-3.251704 59.5819,-8.8222 34.8299,-6.815026 51.887,-11.842895 51.9152,-13.641546 0.4925,-31.3850489 -1.6966,-100.910344 -2.8231,-144.771522 -0.249,-9.68546 -5.8699,-20.58887 -16.9313,-32.53135 -10.7619,-11.95589 -18.8052,-17.84388 -24.0321,-17.7338 z m -175.7262,3.79666 c -3.122,0.0723 -11.3995,2.41731 -24.8709,7.04092 -9.4953,3.2591 -21.5889,7.65738 -36.2748,13.19093 -35.55109,13.1033 -53.37871,20.70214 -53.33107,22.69836 1.29513,54.254904 1.38394,84.890523 0.37828,128.7327 -0.30712,13.389288 4.32277,23.63586 13.93555,31.385685 9.82087,7.649894 18.73188,10.87833 26.17314,10.56421 6.6021,-0.278698 23.3987,-3.627413 49.782,-9.646438 4.3838,-1.000071 9.0772,-2.085635 14.0079,-3.241663 35.0826,-8.338391 52.6307,-13.330431 52.6883,-14.973247 1.3128,-37.4820075 0.6461,-85.122967 -0.7225,-136.899657 -0.2483,-9.38303 -6.0129,-19.91464 -17.3064,-31.54277 -10.989,-11.64363 -19.134,-17.43225 -24.4595,-17.30903 z m 320.3158,24.16804 h 6e-4 c 1.2051,-0.0275 3.0661,2.95684 5.5893,8.94984 2.8168,5.682 4.2452,9.42742 4.283,11.23498 1.0972,52.455435 3.8687,103.5604997 4.5909,147.290227 -6.0205,3.728719 -12.0054,5.350965 -17.8073,5.042588 -15.6606,-0.832394 -23.3818,-9.99293 -23.8377,-28.798762 -0.9702,-40.011038 -2.7729,-85.62983 -3.8077,-132.250323 0.014,-0.008 4.4594,-2.77349 4.4727,-2.78174 8.9475,-5.57525 17.7838,-8.48808 26.5161,-8.6868 z m -1023.6388,8.0548 c -14.56481,12.01157 -28.65424,23.57879 -42.71935,34.886768 0.16429,2.939926 0.45943,8.148798 0.62374,11.088723 11.89337,1.412703 18.56606,12.336453 19.27685,31.404287 2.0606,55.2785875 -4.48449,105.246715 1.59939,178.311602 0.6175,7.41592 4.21445,15.2932 10.94093,23.3872 6.68748,7.67999 13.70631,12.87807 20.7884,15.41508 0.34748,-0.45928 0.69547,-0.91702 1.04438,-1.37408 11.94589,-15.64855 24.78415,-30.08447 38.0969,-43.49656 -0.41275,-4.21885 -0.76027,-8.3766 -1.05316,-12.47057 -12.21928,-0.82454 -19.24051,-13.02448 -19.4753,-34.433552 -0.67486,-61.533559 1.19869,-109.643156 -1.32137,-169.243937 -0.25646,-6.064848 -3.31702,-12.315581 -9.17153,-18.871191 -5.48662,-6.4605 -11.25572,-11.21341 -17.3483,-14.03946 -0.42555,-0.19746 -0.85296,-0.38576 -1.28158,-0.56431 z m 840.4842,5.62808 c 15.7567,-0.22857 23.9052,10.61724 24.4434,31.717449 1.0041,39.365504 2.1187,84.3090296 1.5678,114.243674 -6.2821,3.30189 -12.4663,4.76887 -18.3838,4.557341 -15.9917,-0.571629 -23.6167,-8.420671 -23.5345,-25.5245407 0.1552,-32.2300123 -0.9104,-77.9565393 -2.0087,-118.2243133 5.7689,-4.40995 11.7332,-6.67992 17.9158,-6.76961 z m -175.3185,3.35226 c 5.881,0.0514 10.6623,1.62605 14.3526,4.70772 5.8727,4.90435 8.9806,13.649193 9.2355,25.921409 0.8775,42.241769 0.8976,77.1048886 -0.092,109.366456 -2.9723,1.578741 -5.9088,2.789498 -8.7933,3.645775 -3.3464,0.993464 -6.6418,1.515759 -9.8665,1.573545 -16.16,0.289612 -23.9228,-6.787426 -23.5894,-23.3871998 0.7308,-36.3736972 0.4303,-70.1522492 -0.6763,-114.9480352 5.8794,-4.41209 11.9471,-6.71094 18.2392,-6.86934 0.4018,-0.0105 0.7984,-0.0138 1.1906,-0.0103 z m 15.368,211.085821 -3.2587,0.231507 c -0.6965,0.04943 -1.1078,0.180467 -1.2336,0.39223 -0.1,0.180925 -0.1861,0.563078 -0.2589,1.147729 -0.4217,2.898373 -0.9945,5.213933 -1.7182,6.945823 -0.6978,1.70111 -1.5488,2.99309 -2.5533,3.87574 -1.0045,0.88264 -2.1529,1.50003 -3.4448,1.8526 -1.2659,0.32174 -2.6926,0.53933 -4.2803,0.65216 -0.585,0.0416 -0.955,0.1546 -1.1105,0.33951 -0.1575,0.15605 -0.2163,0.537 -0.1757,1.14257 l 0.2811,4.1956 c 0.039,0.57674 0.1468,0.94576 0.3256,1.10691 0.1767,0.13229 0.544,0.17913 1.1012,0.13953 l 5.1391,-0.36587 c 0.5571,-0.0396 0.9136,0.066 1.0703,0.31574 0.1825,0.2188 0.2936,0.61597 0.3322,1.1927 l 1.7979,26.86141 c 0.2355,3.51807 1.3211,6.14992 3.2571,7.89564 1.9342,1.71686 4.8652,2.43607 8.7928,2.15697 2.8134,-0.19992 5.1094,-0.81199 6.888,-1.83658 1.7785,-1.02457 3.2043,-2.2996 4.2777,-3.82457 1.0716,-1.5538 1.957,-3.16674 2.6567,-4.83898 0.1939,-0.44839 0.2012,-0.7681 0.021,-0.95809 -0.1546,-0.2208 -0.464,-0.44446 -0.927,-0.67232 l -2.4737,-1.21543 c -0.489,-0.19704 -0.8272,-0.23052 -1.0144,-0.10128 -0.1892,0.10035 -0.3941,0.38947 -0.6139,0.86867 -0.6595,1.43761 -1.3849,2.51852 -2.1762,3.24116 -0.7634,0.72065 -1.6321,1.11514 -2.607,1.18442 -1.0586,0.0752 -1.9054,-0.24113 -2.5405,-0.9493 -0.637,-0.73702 -1.0097,-1.91311 -1.1178,-3.52795 l -1.697,-25.34729 c -0.037,-0.54789 0.063,-0.93169 0.3008,-1.15135 0.265,-0.22167 0.6478,-0.35039 1.1493,-0.38603 l 8.6496,-0.61443 c 0.4456,-0.0316 0.762,-0.11262 0.9492,-0.24184 0.1854,-0.15802 0.2636,-0.45267 0.2346,-0.88521 l -0.3068,-4.58526 c -0.037,-0.54788 -0.1432,-0.88831 -0.3199,-1.02061 -0.151,-0.16314 -0.4769,-0.22632 -0.9783,-0.19069 l -8.7328,0.62012 c -0.585,0.0416 -0.9961,-0.0304 -1.2324,-0.21652 -0.2086,-0.18797 -0.3338,-0.59911 -0.3762,-1.23352 l -0.7328,-10.943515 c -0.052,-0.781963 -0.4016,-1.199113 -1.0475,-1.251601 l -5e-4,-6e-6 c -0.092,-0.0079 -0.1903,-0.0075 -0.2946,-5.82e-4 z m 339.9167,3.364649 c -0.4202,-0.0116 -0.691,0.0513 -0.8118,0.18965 -0.1299,0.15907 -0.2817,0.5195 -0.4563,1.08056 -0.9246,2.77004 -1.8956,4.93823 -2.912,6.50451 -0.9855,1.54088 -2.05,2.65007 -3.1931,3.32847 -1.143,0.6784 -2.38,1.06947 -3.7124,1.17254 -1.3015,0.0776 -2.743,0.022 -4.3243,-0.16639 -0.5826,-0.0695 -0.9669,-0.028 -1.1524,0.12449 -0.1823,0.12376 -0.3063,0.48736 -0.3731,1.09038 l -0.4625,4.17803 c -0.064,0.57429 -0.022,0.95716 0.1259,1.14929 0.1506,0.16341 0.5029,0.27856 1.0578,0.34468 l 5.1185,0.60979 c 0.5548,0.0661 0.8872,0.23664 0.9975,0.51159 0.1408,0.24954 0.1795,0.66128 0.1163,1.23558 l -2.9575,26.74773 c -0.3873,3.50319 0.2171,6.29542 1.8139,8.37674 1.5999,2.0526 4.3552,3.3125 8.2667,3.77858 2.8018,0.33387 5.1678,0.16506 7.0972,-0.50694 1.9293,-0.672 3.5559,-1.65692 4.8799,-2.95383 1.3269,-1.32562 2.4814,-2.74441 3.4638,-4.25658 0.2695,-0.40429 0.3324,-0.7171 0.1881,-0.93793 -0.1132,-0.24626 -0.3774,-0.5248 -0.7927,-0.83612 l -2.219,-1.66141 c -0.4463,-0.2859 -0.7734,-0.38265 -0.9804,-0.29094 -0.2036,0.0631 -0.4555,0.30928 -0.7559,0.73898 -0.9014,1.28906 -1.8047,2.21427 -2.7099,2.77554 -0.8776,0.56457 -1.8021,0.78902 -2.773,0.67335 -1.0542,-0.12562 -1.8311,-0.59634 -2.3311,-1.41232 -0.4969,-0.84472 -0.6564,-2.07135 -0.4786,-3.67936 l 2.7911,-25.24032 c 0.06,-0.5456 0.2261,-0.90363 0.4981,-1.07487 0.2997,-0.16796 0.6995,-0.2223 1.1989,-0.16279 l 8.6135,1.0263 c 0.4438,0.0529 0.7692,0.0333 0.9761,-0.0584 0.21,-0.12045 0.3388,-0.39611 0.3865,-0.82682 l 0.505,-4.56561 c 0.06,-0.5456 0.02,-0.90004 -0.1354,-1.0635 -0.1196,-0.18882 -0.4292,-0.31257 -0.9287,-0.37207 l -8.6966,-1.03663 c -0.5825,-0.0695 -0.9733,-0.21751 -1.1731,-0.44493 -0.1719,-0.22414 -0.2233,-0.65244 -0.1535,-1.28416 l 1.2052,-10.89701 c 0.098,-0.89017 -0.2685,-1.38498 -1.1007,-1.48415 l -3.2458,-0.38706 c -0.1734,-0.0207 -0.3302,-0.0327 -0.4703,-0.0367 z m -472.19342,2.27429 c -0.22368,-0.0126 -0.48659,-0.003 -0.78859,0.0296 l -30.19919,3.26232 c -0.74978,0.081 -1.21146,0.23252 -1.38545,0.45476 -0.17398,0.22224 -0.22063,0.73604 -0.13901,1.54099 l 0.43357,4.2695 c 0.0729,0.71871 0.24384,1.1647 0.51418,1.33894 0.29809,0.17124 0.79456,0.21967 1.48879,0.1447 l 6.20635,-0.67076 c 0.74977,-0.081 1.20691,2.1e-4 1.37201,0.24392 0.19286,0.24073 0.32777,0.73513 0.40359,1.48259 l 4.57904,45.14918 c 0.0963,0.94869 -0.0522,1.56057 -0.44544,1.83554 -0.39321,0.275 -0.97894,0.455 -1.75649,0.53899 l -5.08186,0.54883 c -0.83309,0.0899 -1.39185,0.25152 -1.6769,0.48575 -0.26021,0.2025 -0.35402,0.66312 -0.28111,1.38183 l 0.42891,4.22662 c 0.0787,0.77621 0.2561,1.27979 0.53226,1.51154 0.27325,0.20298 0.78449,0.26393 1.53428,0.18293 l 30.03279,-3.24425 c 0.74977,-0.081 1.23964,-0.23581 1.46916,-0.46406 0.2266,-0.25698 0.30215,-0.7589 0.22634,-1.50636 l -0.46353,-4.5713 c -0.0583,-0.57497 -0.20786,-0.93619 -0.44753,-1.08468 -0.24256,-0.17723 -0.62683,-0.23788 -1.15445,-0.18087 l -7.03987,0.76067 c -0.77756,0.084 -1.30288,0.0242 -1.57614,-0.17879 -0.27326,-0.203 -0.45061,-0.7066 -0.53227,-1.51155 l -4.60177,-45.36518 c -0.0816,-0.80495 -0.0361,-1.33291 0.13487,-1.58388 0.19882,-0.254 0.70053,-0.4246 1.50585,-0.5116 l 6.58151,-0.71055 c 0.74978,-0.081 1.25149,-0.2516 1.50585,-0.5116 0.27922,-0.29173 0.3741,-0.88336 0.28371,-1.77457 l -0.38086,-3.7517 c -0.0816,-0.80495 -0.24493,-1.31021 -0.49041,-1.51619 -0.15526,-0.1467 -0.41939,-0.23063 -0.79221,-0.25166 z m 294.94632,0.41237 c -2.9039,-0.006 -5.3617,0.56727 -7.3736,1.71927 -1.9839,1.15209 -3.591,2.60809 -4.822,4.36873 -0.3917,0.57727 -0.7272,0.98116 -1.0066,1.21181 -0.2516,0.20181 -0.4336,0.12952 -0.5447,-0.21756 -0.1112,-0.376 -0.1658,-1.11286 -0.1643,-2.21124 v -2.08152 c 0,-0.72263 -0.1384,-1.1561 -0.4175,-1.30121 -0.279,-0.14508 -0.7535,-0.21823 -1.4237,-0.21962 l -15.2037,-0.0315 c -0.7539,-0.001 -1.2562,0.12695 -1.5079,0.38653 -0.2237,0.23076 -0.3365,0.76528 -0.3375,1.60353 v 3.29539 c 0,0.78044 0.1376,1.25743 0.4165,1.43144 0.2789,0.14508 0.7959,0.21858 1.5498,0.22013 l 3.3088,0.007 c 0.726,0.002 1.2145,0.0886 1.4655,0.26252 0.251,0.17395 0.3762,0.65101 0.3752,1.43144 l -0.037,27.83499 c 0,0.69375 -0.085,1.15611 -0.2532,1.387 -0.1398,0.20204 -0.5587,0.3022 -1.2568,0.30075 l -4.3557,-0.009 c -0.5306,-0.001 -0.8796,0.11378 -1.0476,0.34468 -0.1398,0.20204 -0.2106,0.56338 -0.2113,1.08365 l -0.01,4.0318 c 0,0.66481 0.1241,1.08435 0.3758,1.25832 0.2511,0.14504 0.6698,0.21841 1.2562,0.21963 l 22.5753,0.0465 c 0.5864,0.001 0.9495,-0.1282 1.0894,-0.38808 0.1401,-0.28875 0.2101,-0.70707 0.2108,-1.25626 l 0.01,-3.81631 c 0,-0.63592 -0.082,-1.0401 -0.2496,-1.21387 -0.1673,-0.17376 -0.5443,-0.2613 -1.1307,-0.26252 l -2.806,-0.006 c -0.7819,-0.002 -1.2421,-0.10333 -1.3813,-0.30592 -0.1394,-0.23153 -0.2087,-0.75182 -0.2077,-1.56115 l 0.021,-15.73858 c 0,-2.97713 0.3844,-5.53452 1.141,-7.67188 0.7846,-2.1373 1.8617,-3.76828 3.2314,-4.89272 1.3696,-1.15335 2.9336,-1.72808 4.6927,-1.72445 1.8149,0.004 3.0987,0.65628 3.851,1.95854 0.7801,1.2734 1.1685,3.2977 1.1647,6.0725 l -0.03,22.15524 c 0,0.69374 -0.084,1.15611 -0.2526,1.38699 -0.14,0.23095 -0.5587,0.34613 -1.2568,0.34469 l -2.1363,-0.005 c -0.6981,-0.001 -1.1448,0.11326 -1.3405,0.34416 -0.1678,0.20199 -0.2522,0.66438 -0.2533,1.387 l -0.01,3.51141 c 0,0.72263 0.097,1.18528 0.292,1.38802 0.195,0.20275 0.6274,0.30558 1.2976,0.30697 l 19.6014,0.0403 c 0.8096,0.002 1.3266,-0.099 1.5503,-0.30076 0.2237,-0.23077 0.3358,-0.75027 0.3369,-1.55959 l 0.01,-3.77238 c 0,-0.60704 -0.1247,-0.96805 -0.3756,-1.08417 -0.2511,-0.14505 -0.67,-0.21893 -1.2563,-0.22014 l -2.0939,-0.004 c -0.6143,-0.002 -1.0332,-0.13212 -1.2563,-0.39274 -0.195,-0.26054 -0.2922,-0.70924 -0.2914,-1.34514 l 0.021,-15.86827 c 0,-2.97716 0.3559,-5.5344 1.0567,-7.67189 0.7288,-2.13742 1.7644,-3.76822 3.1063,-4.89273 1.3698,-1.15332 3.0043,-1.72837 4.903,-1.72443 1.8149,0.004 3.0982,0.6573 3.8504,1.95956 0.7802,1.27341 1.1685,3.29716 1.1649,6.07198 l -0.03,22.19865 c 0,0.72264 -0.099,1.18505 -0.2945,1.387 -0.1679,0.20198 -0.6151,0.30175 -1.3411,0.30024 l -2.7642,-0.005 c -0.6142,-0.002 -1.005,0.14231 -1.173,0.43098 -0.1401,0.25985 -0.2105,0.73669 -0.2113,1.4304 l -0.01,3.1652 c -2e-4,0.86715 0.1381,1.40164 0.4171,1.60455 0.2789,0.2029 0.8371,0.30523 1.6747,0.30696 l 21.4866,0.045 c 0.8657,0.002 1.3964,-0.12736 1.5922,-0.38705 0.2238,-0.28857 0.3363,-0.88112 0.3374,-1.77715 v -3.2515 c 0,-0.63593 -0.096,-1.04108 -0.2915,-1.21492 -0.195,-0.20271 -0.5721,-0.30477 -1.1307,-0.30591 l -3.9372,-0.008 c -0.7817,-0.002 -1.2842,-0.10414 -1.5074,-0.30696 -0.1952,-0.20273 -0.292,-0.69443 -0.2909,-1.47485 l 0.03,-23.28178 c 0.01,-4.65359 -1.0778,-8.21135 -3.2525,-10.67273 -2.0384,-2.33434 -5.1826,-3.57892 -9.4321,-3.73362 v -4e-5 c -0.2828,-0.0105 -0.5708,-0.0153 -0.8635,-0.016 -2.9039,-0.006 -5.3618,0.55223 -7.3737,1.67536 -1.9839,1.12316 -3.703,2.53613 -5.1573,4.23849 -0.5313,0.6348 -0.9789,1.00912 -1.3421,1.12397 -0.3632,0.11486 -0.8086,-0.27593 -1.3379,-1.17306 -1.0587,-1.82319 -2.4812,-3.25731 -4.2669,-4.30155 -1.7576,-1.07311 -4.1446,-1.61278 -7.1603,-1.61902 z m 75.0683,1.61334 c -5.0492,-0.22475 -9.3203,0.68481 -12.8136,2.72799 -3.4652,2.04446 -6.1246,4.89161 -7.9789,8.54109 -1.8263,3.6507 -2.8346,7.78602 -3.0236,12.40647 -0.1652,4.0429 0.5037,7.84785 2.0066,11.41533 1.5031,3.56747 3.8562,6.49324 7.0606,8.77672 3.2323,2.28474 7.3037,3.53623 12.2137,3.75481 3.5429,0.15773 6.7052,-0.28017 9.4862,-1.31362 2.8103,-1.06103 5.1825,-2.67674 7.1159,-4.84724 1.9345,-2.19939 3.3737,-4.92691 4.3175,-8.18297 0.1014,-0.42942 0.084,-0.70508 -0.051,-0.82682 -0.1056,-0.14935 -0.4095,-0.235 -0.9115,-0.25735 l -5.6493,-0.25166 c -0.4742,-0.0213 -0.7995,0.0657 -0.9752,0.26045 -0.1466,0.16706 -0.2816,0.40664 -0.4061,0.71933 -1.1712,2.66732 -2.667,4.72718 -4.4871,6.17947 -1.7923,1.45353 -4.0415,2.11982 -6.7474,1.99936 -2.4271,-0.10804 -4.3394,-0.85807 -5.7356,-2.25102 -1.3964,-1.39293 -2.3845,-3.20205 -2.9641,-5.42654 -0.5506,-2.25216 -0.8139,-4.67953 -0.7912,-7.28224 0,-0.52108 0.063,-0.86492 0.2093,-1.03199 0.1465,-0.16704 0.4849,-0.23908 1.0149,-0.21549 l 26.9488,1.19993 c 0.6136,0.0273 1.008,-0.0419 1.1823,-0.20774 0.2025,-0.16456 0.3161,-0.55009 0.3411,-1.15652 0.08,-1.9637 0,-4.03646 -0.2488,-6.21718 -0.2449,-2.20961 -0.7577,-4.37287 -1.5374,-6.49056 -0.7797,-2.1177 -1.9025,-4.04818 -3.3683,-5.79138 -1.4367,-1.77086 -3.3199,-3.21421 -5.6498,-4.33049 -2.3297,-1.11627 -5.183,-1.74986 -8.5586,-1.90013 z m -122.8989,0.34881 -16.8269,0.60307 c -0.5302,0.0192 -0.8615,0.13175 -0.9943,0.33899 -0.1325,0.20722 -0.1887,0.59996 -0.169,1.17771 l 0.1492,4.37647 c 0.014,0.49112 0.1385,0.79058 0.3659,0.89814 0.2272,0.10756 0.5776,0.15286 1.0521,0.1359 l 3.7672,-0.13543 c 0.6139,-0.0216 1.0225,0.0792 1.2258,0.30335 0.23,0.19421 0.3561,0.62336 0.3787,1.28777 l 0.543,15.9458 c 0.1011,2.97539 -0.2846,5.59238 -1.1576,7.85069 -0.8739,2.22942 -2.0858,3.97955 -3.6349,5.24981 -1.5493,1.27024 -3.2726,1.93913 -5.1702,2.00711 -2.0092,0.072 -3.5123,-0.58276 -4.5093,-1.96423 -0.998,-1.41036 -1.5444,-3.50191 -1.6387,-6.27507 l -0.9973,-29.29175 c -0.02,-0.6934 -0.149,-1.10846 -0.3772,-1.24488 -0.2012,-0.16633 -0.6373,-0.23795 -1.307,-0.21394 l -16.9519,0.60772 c -0.6697,0.0241 -1.0843,0.1546 -1.2439,0.3917 -0.1604,0.20821 -0.2287,0.6736 -0.204,1.39578 l 0.1278,3.76981 c 0.018,0.63563 0.1473,1.03565 0.3761,1.20096 0.2562,0.13544 0.6916,0.19253 1.3055,0.17052 l 4.5201,-0.16226 c 0.5581,-0.02 0.9254,0.0828 1.1007,0.308 0.2031,0.22409 0.3151,0.63928 0.3359,1.24591 l 0.7973,23.44198 c 0.1054,3.09093 0.6833,5.68759 1.7328,7.79023 1.0774,2.10166 2.6814,3.67833 4.8126,4.72994 2.158,1.02172 4.9393,1.47176 8.3436,1.34979 3.6279,-0.12995 6.5215,-0.89904 8.6807,-2.30684 2.1583,-1.43666 3.8565,-3.2616 5.0942,-5.47511 0.3431,-0.59075 0.642,-0.83314 0.8971,-0.72657 0.255,0.10654 0.3915,0.4055 0.4082,0.89658 l 0.1338,3.94292 c 0.022,0.75117 0.1255,1.23941 0.3013,1.4645 0.2032,0.2241 0.6537,0.32369 1.3514,0.2987 l 16.4495,-0.58963 c 0.5582,-0.02 0.8896,-0.13329 0.9943,-0.33951 0.1315,-0.23611 0.1871,-0.65738 0.1665,-1.26402 l -0.1432,-4.20282 c -0.014,-0.49111 -0.1396,-0.8051 -0.368,-0.94155 -0.2002,-0.13745 -0.5095,-0.19846 -0.928,-0.18345 l -4.5626,0.16378 c -0.7254,0.0258 -1.2028,-0.044 -1.432,-0.2093 -0.2011,-0.16631 -0.3139,-0.61054 -0.3384,-1.33273 l -1.1937,-35.05471 c -0.016,-0.57783 -0.1027,-0.965 -0.2491,-1.16219 -0.089,-0.14867 -0.3015,-0.23608 -0.6377,-0.262 v -5.2e-4 c -0.1119,-0.009 -0.2378,-0.0103 -0.3772,-0.005 z m -61.0025,1.26401 c -0.3774,-0.005 -0.7615,0.002 -1.1519,0.0249 -3.2339,0.1852 -5.844,1.04425 -7.8305,2.57658 -1.9587,1.53072 -3.4657,3.39744 -4.5212,5.60017 -0.3002,0.65408 -0.511,0.89799 -0.632,0.73122 -0.1209,-0.16678 -0.2033,-0.6689 -0.2485,-1.50585 l -0.216,-3.98322 c -0.032,-0.57718 -0.1619,-0.93093 -0.3928,-1.06246 -0.2323,-0.16038 -0.5994,-0.22666 -1.1012,-0.19793 l -16.3928,0.93949 c -0.5855,0.0335 -0.9697,0.17136 -1.1524,0.41341 -0.1843,0.2132 -0.2581,0.65139 -0.2222,1.31515 l 0.206,3.8096 c 0.032,0.60609 0.1238,1.0059 0.2744,1.19993 0.1767,0.16358 0.5717,0.2279 1.1849,0.19275 l 4.6835,-0.26819 c 0.669,-0.0382 1.08,0.0541 1.232,0.27698 0.1797,0.2213 0.2885,0.69288 0.3275,1.41438 l 1.506,27.83551 c 0.038,0.69264 -0.079,1.13379 -0.3484,1.32292 -0.2415,0.18752 -0.7107,0.30113 -1.4077,0.34106 l -4.3072,0.24702 c -0.5018,0.0288 -0.8607,0.12145 -1.0759,0.27853 -0.1889,0.12662 -0.2673,0.47855 -0.2362,1.05575 l 0.2336,4.32893 c 0.03,0.54836 0.1609,0.90261 0.3933,1.06299 0.2602,0.1588 0.6552,0.22308 1.185,0.19276 l 24.9235,-1.42731 c 0.5576,-0.0319 0.8869,-0.15229 0.9876,-0.3607 0.1268,-0.23887 0.1732,-0.66104 0.1405,-1.26711 l -0.2129,-3.94033 c -0.03,-0.54833 -0.1054,-0.92004 -0.2279,-1.11569 -0.1224,-0.19562 -0.4485,-0.27788 -0.9783,-0.24753 l -4.8927,0.28009 c -0.669,0.0383 -1.0925,-0.0385 -1.2707,-0.23099 -0.1798,-0.22132 -0.2876,-0.66378 -0.3235,-1.32757 l -0.8149,-15.06575 c -0.1611,-2.97258 0.1381,-5.72481 0.896,-8.2579 0.7843,-2.56353 1.8607,-4.63704 3.2293,-6.2208 1.3949,-1.61423 2.9006,-2.46847 4.5176,-2.56109 0.7248,-0.0415 1.2181,0.032 1.4799,0.21963 0.2898,0.18604 0.4433,0.43752 0.4605,0.75499 0.02,0.34629 -0.1571,0.71865 -0.5271,1.11621 -0.3421,0.39594 -0.6765,0.93602 -1.0031,1.62058 -0.3265,0.68453 -0.4577,1.61861 -0.3938,2.80189 0.095,1.76046 0.8557,3.14977 2.2811,4.16822 1.4253,1.01844 3.1692,1.46848 5.2322,1.3503 1.6728,-0.0958 3.057,-0.62375 4.1517,-1.58388 1.0946,-0.96015 1.8986,-2.12032 2.4122,-3.48144 0.5121,-1.38995 0.7312,-2.76373 0.6578,-4.12016 -0.1699,-3.14578 -1.4163,-5.50622 -3.7387,-7.08123 -2.0091,-1.40479 -4.3341,-2.12603 -6.9758,-2.16471 z m 211.8826,1.01751 c -0.3893,0.0111 -0.7059,0.0938 -0.9487,0.24753 -0.3218,0.1762 -0.5075,0.59513 -0.5586,1.2578 l -0.2796,3.63079 c -0.051,0.66266 0,1.11572 0.1468,1.36012 0.1513,0.21558 0.5608,0.3516 1.2288,0.40722 l 4.5512,0.37878 c 0.5845,0.0486 0.9674,0.16745 1.1487,0.35657 0.1838,0.16027 0.2529,0.54322 0.2062,1.14824 l -2.1755,28.22103 c -0.055,0.72025 -0.2006,1.14261 -0.4341,1.26813 -0.2337,0.12553 -0.7128,0.15845 -1.4366,0.0982 l -4.175,-0.34778 c -0.6124,-0.0509 -1.0378,0.0147 -1.2758,0.19792 -0.236,0.15433 -0.3803,0.57771 -0.4336,1.26917 l -0.2863,3.71657 c -0.05,0.63387 -0.01,1.07164 0.1076,1.31364 0.1236,0.21326 0.4644,0.34327 1.0211,0.38963 l 23.0456,1.91927 c 0.5568,0.0463 0.9667,0.007 1.2284,-0.11576 0.2917,-0.1497 0.4627,-0.55586 0.5137,-1.21853 l 0.3028,-3.93258 c 0.051,-0.66265 -0.031,-1.08952 -0.2372,-1.28106 -0.2094,-0.19138 -0.6201,-0.31281 -1.2325,-0.3638 l -2.6299,-0.21911 c -0.6679,-0.0555 -1.1038,-0.22187 -1.3063,-0.49971 -0.1749,-0.27556 -0.2378,-0.73041 -0.1891,-1.36425 l 1.2195,-15.81765 c 0.2286,-2.96757 0.8981,-5.47755 2.0087,-7.53081 1.1108,-2.05323 2.5033,-3.57614 4.1765,-4.56767 1.6753,-1.02034 3.4594,-1.45108 5.3521,-1.29346 2.0318,0.16918 3.4573,0.94002 4.2757,2.31303 0.8209,1.34419 1.1248,3.39963 0.9115,6.16553 l -1.7063,22.12681 c -0.058,0.74907 -0.2056,1.21522 -0.4438,1.39835 -0.2082,0.15665 -0.6742,0.20496 -1.398,0.1447 l -2.9222,-0.24391 c -0.529,-0.044 -0.8728,0.0577 -1.032,0.30541 -0.1313,0.25003 -0.2182,0.6494 -0.2604,1.19682 l -0.2796,3.62975 c -0.05,0.63386 -0.029,1.08538 0.063,1.35394 0.1213,0.24207 0.4889,0.38877 1.1013,0.43976 l 22.7123,1.89084 c 0.7236,0.0602 1.2163,0.0286 1.4779,-0.0946 0.2917,-0.14969 0.4662,-0.59863 0.524,-1.34772 l 0.2997,-3.88968 c 0.041,-0.54741 -0.027,-0.92985 -0.2057,-1.14774 -0.1514,-0.21557 -0.4776,-0.34429 -0.9787,-0.38603 l -4.4669,-0.37206 c -0.8071,-0.0672 -1.2998,-0.22404 -1.4769,-0.47077 -0.1493,-0.2444 -0.1924,-0.77044 -0.1302,-1.57717 l 1.7793,-23.07766 c 0.2377,-3.08282 -0.049,-5.73107 -0.8584,-7.94422 -0.8099,-2.21316 -2.2301,-3.95454 -4.2612,-5.22552 -2.0287,-1.29979 -4.7408,-2.09125 -8.1364,-2.37402 -3.5907,-0.29899 -6.5281,0.19567 -8.8124,1.48415 -2.2843,1.28859 -4.2153,2.8966 -5.7924,4.82399 -0.462,0.54146 -0.801,0.75972 -1.017,0.65474 -0.1882,-0.10264 -0.24,-0.70145 -0.1556,-1.79627 l 0.2527,-3.28455 c 0.053,-0.69148 -0.077,-1.18103 -0.3907,-1.46812 -0.3119,-0.31593 -0.7461,-0.49676 -1.3028,-0.54313 l -15.6145,-1.30018 c -0.1461,-0.0121 -0.2845,-0.0169 -0.4144,-0.0124 z m -28.4855,3.55275 v 3e-5 c 1.3107,0.0587 2.4256,0.47007 3.3444,1.23403 0.9189,0.76416 1.6609,1.75184 2.2262,2.96313 0.5665,1.18242 0.9752,2.47337 1.2253,3.87315 0.25,1.3998 0.3628,2.7502 0.3374,4.05091 0.012,0.43434 -0.043,0.70699 -0.1597,0.81753 -0.1152,0.0816 -0.4518,0.11006 -1.0097,0.0853 l -14.1857,-0.63149 c -0.6138,-0.0273 -0.9589,-0.12995 -1.0356,-0.30696 -0.076,-0.20587 -0.088,-0.56769 -0.041,-1.08616 0.1919,-1.95872 0.6436,-3.77614 1.355,-5.45134 0.7125,-1.70412 1.7187,-3.07663 3.0189,-4.1181 1.3279,-1.04004 2.9684,-1.51659 4.9207,-1.42989 z m -261.475,0.97204 v 5.1e-4 c -0.077,-0.007 -0.1591,-0.004 -0.246,0.002 l -3.9248,0.32454 c -0.5567,0.046 -0.9265,0.14937 -1.1101,0.30953 -0.1858,0.13139 -0.3605,0.4068 -0.524,0.82631 l -0.8485,2.59313 c -0.201,0.6546 -0.3863,0.97461 -0.5555,0.95963 -0.1715,-0.0438 -0.4809,-0.23617 -0.9275,-0.5762 -1.2821,-0.99582 -3.0009,-1.85355 -5.1579,-2.574 -2.1314,-0.75157 -4.6165,-1.01007 -7.4553,-0.77515 -2.839,0.23493 -5.3439,0.97876 -7.5154,2.2314 -2.1436,1.25032 -3.77633,2.95089 -4.89738,5.10252 -1.12329,2.12282 -1.57385,4.6112 -1.35183,7.46363 0.2288,2.93888 1.04017,5.26323 2.43396,6.97477 1.39145,1.68273 3.10285,2.97709 5.13405,3.88193 2.0591,0.90253 4.2148,1.60815 6.4673,2.1177 2.2504,0.48073 4.3756,0.97233 6.3753,1.47381 2.0255,0.47034 3.7026,1.14302 5.0313,2.019 1.3265,0.84717 2.0562,2.12102 2.1885,3.82096 0.128,1.64229 -0.3679,3.01681 -1.4862,4.12429 -1.0927,1.07635 -2.7941,1.71052 -5.1042,1.9017 -2.0317,0.16813 -3.9532,-0.0502 -5.765,-0.65371 -1.7839,-0.60633 -3.3883,-1.60465 -4.8131,-2.99465 -1.3969,-1.3923 -2.5306,-3.18353 -3.4014,-5.37332 -0.2028,-0.44718 -0.3793,-0.73717 -0.5296,-0.86971 -0.1527,-0.16136 -0.5354,-0.21654 -1.1477,-0.16588 l -4.42518,0.36639 c -0.47307,0.0391 -0.77099,0.16506 -0.89445,0.37827 -0.0956,0.2109 -0.12359,0.57589 -0.0833,1.0945 l 1.12344,14.43478 c 0.038,0.4898 0.12041,0.81715 0.24494,0.98082 0.1549,0.19017 0.45439,0.2663 0.89972,0.22944 l 4.04983,-0.33486 c 0.5288,-0.0438 0.8837,-0.16035 1.0651,-0.34933 0.2114,-0.16249 0.3875,-0.42333 0.5276,-0.7829 l 0.9384,-2.51354 c 0.1868,-0.47944 0.3918,-0.7283 0.6145,-0.74673 0.2204,-0.0473 0.5235,0.0727 0.91,0.35967 1.4512,1.01083 3.2683,1.8609 5.4508,2.55023 2.1825,0.68933 4.6514,0.91998 7.4068,0.69195 3.2564,-0.26947 6.1524,-1.03138 8.6879,-2.28514 2.5354,-1.25374 4.4692,-3.03747 5.8017,-5.3516 1.3603,-2.31642 1.9071,-5.18887 1.6401,-8.61756 -0.222,-2.85244 -1.0416,-5.10457 -2.4587,-6.75619 -1.3914,-1.68273 -3.1294,-2.95987 -5.2141,-3.83128 -2.059,-0.90255 -4.2429,-1.60656 -6.551,-2.11151 -2.2805,-0.50724 -4.4472,-0.99491 -6.5004,-1.46296 -2.0555,-0.49685 -3.7615,-1.18148 -5.118,-2.05517 -1.3287,-0.87598 -2.0571,-2.13522 -2.1849,-3.77754 -0.1011,-1.29656 0.2743,-2.41548 1.1254,-3.35587 0.8791,-0.94267 2.2092,-1.48711 3.9905,-1.63453 2.4214,-0.20037 4.8335,0.38276 7.2368,1.74977 2.4033,1.36702 4.3118,3.57231 5.7253,6.61613 0.2006,0.41837 0.3652,0.73834 0.4945,0.95964 0.1548,0.19017 0.5525,0.25863 1.1927,0.20567 l 4.4256,-0.36639 c 0.4731,-0.0391 0.7583,-0.14967 0.8562,-0.33176 0.1258,-0.1844 0.1707,-0.5069 0.1349,-0.9679 l -1.0934,-14.04617 c -0.053,-0.68068 -0.349,-1.04162 -0.8884,-1.08262 z m -228.77368,2.35282 c -0.19922,-0.0172 -0.43041,-0.009 -0.69352,0.0258 l -17.031,2.26034 c -0.52616,0.0699 -0.87767,0.18903 -1.05368,0.35811 -0.17601,0.16907 -0.22956,0.52651 -0.16175,1.07125 l 0.55087,4.42919 c 0.0642,0.51605 0.16077,0.83822 0.28939,0.96687 0.1563,0.12497 0.47024,0.15654 0.94103,0.094 l 5.15059,-0.68419 c 0.47077,-0.0625 0.79783,-0.0329 0.98184,0.0884 0.20814,0.089 0.34506,0.3919 0.40928,0.90795 l 2.3549,18.92185 c 0.14274,1.14679 0.18471,1.82639 0.12661,2.03812 -0.0617,0.18303 -0.30812,0.0118 -0.7395,-0.51367 -1.52808,-2.09952 -3.40906,-3.64284 -5.64306,-4.62865 -2.23756,-1.01449 -4.85155,-1.3235 -7.84242,-0.92657 -3.43397,0.45576 -6.46326,1.79097 -9.08729,4.00441 -2.62403,2.21345 -4.57481,5.19713 -5.85288,8.9514 -1.27808,3.75426 -1.60529,8.14013 -0.98082,13.15733 0.62447,5.01722 1.97345,9.18066 4.04627,12.4902 2.10049,3.30584 4.64938,5.69191 7.64708,7.15925 3.02539,1.46364 6.25486,1.96833 9.68881,1.51256 3.04626,-0.40428 5.50399,-1.35763 7.37216,-2.85873 1.8646,-1.52979 3.34973,-3.50418 4.45606,-5.92419 0.31278,-0.65352 0.56277,-0.90547 0.75034,-0.75551 0.18757,0.14998 0.32094,0.54026 0.39946,1.17099 l 0.45992,3.69848 c 0.0785,0.63073 0.19984,1.03726 0.36329,1.21956 0.19113,0.17864 0.57754,0.22911 1.15909,0.15193 l 17.2806,-2.2934 c 0.58157,-0.0772 0.93253,-0.1964 1.05318,-0.35812 0.14473,-0.19407 0.17981,-0.59217 0.1049,-1.19424 l -0.52968,-4.25762 c -0.0642,-0.51605 -0.17495,-0.83672 -0.33126,-0.9617 -0.13219,-0.15732 -0.4472,-0.20258 -0.94567,-0.13643 l -4.73563,0.6284 c -0.69234,0.0919 -1.1459,0.0647 -1.36116,-0.0817 -0.21883,-0.17497 -0.3749,-0.63538 -0.46767,-1.38079 l -7.11895,-57.19599 c -0.0713,-0.57341 -0.24037,-0.91499 -0.50746,-1.02526 -0.13532,-0.0695 -0.30308,-0.11295 -0.50229,-0.13023 z m 167.90085,2.63602 c -0.94493,-0.0197 -1.94715,0.0214 -3.00705,0.1235 -3.58625,0.34555 -6.39701,1.35668 -8.43256,3.03341 -2.03555,1.67672 -3.66971,3.60517 -4.90254,5.78517 -0.3649,0.61578 -0.66275,0.89122 -0.89296,0.82631 -0.20243,-0.0675 -0.35317,-0.64838 -0.45218,-1.74202 l -0.29714,-3.28093 c -0.0626,-0.69072 -0.27236,-1.14978 -0.62942,-1.37666 -0.35965,-0.25565 -0.81754,-0.35639 -1.37355,-0.30283 l -15.59595,1.50276 c -0.58383,0.0562 -1.01832,0.21416 -1.30328,0.47387 -0.28758,0.23091 -0.40152,0.67752 -0.34158,1.33945 l 0.32866,3.62613 c 0.0599,0.66196 0.18391,1.09995 0.37155,1.31414 0.18505,0.18538 0.61127,0.24567 1.27848,0.18138 l 4.54494,-0.43769 c 0.58383,-0.0562 0.9809,-0.007 1.19114,0.14675 0.20764,0.12516 0.33854,0.48962 0.39326,1.094 l 2.5523,28.19052 c 0.0652,0.7195 -0.007,1.16172 -0.21652,1.32705 -0.20938,0.16533 -0.67503,0.28279 -1.39785,0.35244 l -4.17029,0.40152 c -0.61163,0.0589 -1.01954,0.19983 -1.2237,0.42271 -0.20676,0.19412 -0.27855,0.63686 -0.21601,1.32757 l 0.3359,3.71243 c 0.0573,0.63317 0.16571,1.05802 0.32556,1.27486 0.15723,0.18808 0.51421,0.25563 1.07022,0.20206 l 23.01824,-2.21796 c 0.55601,-0.0536 0.9524,-0.16426 1.18958,-0.33227 0.26237,-0.19947 0.36431,-0.62997 0.30438,-1.29191 l -0.35605,-3.92896 c -0.0599,-0.66196 -0.20845,-1.06884 -0.44649,-1.22009 -0.23804,-0.15124 -0.66272,-0.1969 -1.27433,-0.13797 l -2.62724,0.25322 c -0.66721,0.0643 -1.12409,-0.023 -1.36994,-0.26045 -0.21805,-0.24028 -0.35607,-0.67684 -0.41341,-1.31 l -1.43041,-15.80007 c -0.26835,-2.96434 -0.0258,-5.55701 0.72658,-7.77782 0.75239,-2.22079 1.86976,-3.96901 3.35277,-5.24413 1.4804,-1.30389 3.16611,-2.04665 5.05654,-2.2288 2.02942,-0.19554 3.56144,0.31052 4.59609,1.51722 1.03207,1.17793 1.67327,3.14836 1.9234,5.91127 l 2.00091,22.10253 c 0.0677,0.74829 -4.3e-4,1.23387 -0.20463,1.45675 -0.17898,0.19144 -0.62957,0.32206 -1.35238,0.39171 l -2.9192,0.28112 c -0.52821,0.0509 -0.85027,0.21282 -0.96583,0.48525 -0.0877,0.26972 -0.10687,0.67791 -0.0573,1.22473 l 0.32814,3.62613 c 0.0573,0.63315 0.15318,1.07409 0.28784,1.3224 0.15985,0.21685 0.54541,0.29612 1.15704,0.2372 l 22.68542,-2.18592 c 0.7228,-0.0696 1.2031,-0.18855 1.44019,-0.35657 0.26241,-0.19946 0.3598,-0.67335 0.29199,-1.42161 l -0.3519,-3.88555 c -0.0497,-0.54684 -0.18034,-0.91181 -0.39325,-1.09451 -0.18507,-0.1854 -0.52797,-0.2539 -1.0284,-0.20568 l -4.46223,0.42995 c -0.80621,0.0778 -1.31673,0.0109 -1.53216,-0.2005 -0.1877,-0.21416 -0.31833,-0.72431 -0.39119,-1.53014 l -2.08725,-23.05234 c -0.27874,-3.07946 -1.00045,-5.63747 -2.16632,-7.67343 -1.16576,-2.03597 -2.855,-3.4988 -5.06683,-4.38889 -1.52244,-0.63169 -3.32288,-0.96889 -5.40174,-1.01182 z m 460.87733,0.90486 c -1.8447,-0.0444 -3.5875,0.18211 -5.2276,0.67902 -2.3585,0.72693 -4.3151,2.0105 -5.8694,3.85093 -1.5502,1.81182 -2.5222,4.13399 -2.9166,6.96598 -0.4066,2.9178 -0.1137,5.37063 0.879,7.35924 0.9966,1.96003 2.389,3.61506 4.1759,4.96352 1.8149,1.35261 3.7654,2.53528 5.853,3.54914 2.0918,0.98526 4.0589,1.9521 5.9019,2.90008 1.8745,0.92352 3.3659,1.96427 4.4742,3.12332 1.112,1.13046 1.5508,2.54041 1.3157,4.22817 -0.2272,1.63053 -1.0049,2.85737 -2.3327,3.6804 -1.2962,0.79859 -3.0908,1.02551 -5.3847,0.68161 -2.0175,-0.30246 -3.8454,-0.9558 -5.4829,-1.96061 -1.6098,-1.00063 -2.9607,-2.34231 -4.0525,-4.02455 -1.0641,-1.67811 -1.7856,-3.68444 -2.1657,-6.01928 -0.1018,-0.48255 -0.2125,-0.80568 -0.3308,-0.96945 -0.1142,-0.19233 -0.4752,-0.33465 -1.0831,-0.42581 l -4.394,-0.65836 c -0.4699,-0.0705 -0.7885,-0.016 -0.9545,0.1633 -0.1385,0.18366 -0.243,0.5331 -0.3147,1.048 l -1.9967,14.33194 c -0.068,0.48631 -0.059,0.8231 0.028,1.0113 0.1102,0.22096 0.3866,0.36468 0.8288,0.43099 l 4.021,0.60306 c 0.5251,0.0787 0.8968,0.047 1.1141,-0.0956 0.241,-0.10987 0.4679,-0.32445 0.6816,-0.64285 l 1.4536,-2.235 c 0.2849,-0.42457 0.5385,-0.62073 0.7598,-0.58757 0.2251,0.004 0.4948,0.19112 0.8102,0.55965 1.1988,1.31866 2.7884,2.56469 4.7693,3.73776 1.9808,1.17308 4.3394,1.96536 7.0755,2.37556 3.2334,0.48479 6.2209,0.40676 8.9622,-0.23356 2.7413,-0.64031 5.0091,-1.93576 6.8043,-3.88606 1.8229,-1.94617 2.9721,-4.62177 3.4463,-8.02587 0.3944,-2.83198 0.08,-5.21539 -0.9509,-7.15098 -0.9967,-1.96003 -2.418,-3.60438 -4.2643,-4.93251 -1.8147,-1.35263 -3.7938,-2.5394 -5.9367,-3.56155 -2.1152,-1.01802 -4.1239,-1.99104 -6.026,-2.91868 -1.8981,-0.95629 -3.4152,-2.01646 -4.5511,-3.17965 -1.108,-1.15906 -1.5484,-2.5537 -1.3213,-4.18425 0.1792,-1.28727 0.7848,-2.2913 1.8164,-3.01274 1.0591,-0.71729 2.4729,-0.94317 4.2415,-0.67799 2.4044,0.36049 4.6319,1.48275 6.6829,3.36724 2.0509,1.88448 3.4402,4.47231 4.1667,7.76438 0.106,0.45395 0.1983,0.80413 0.277,1.04955 0.1102,0.22095 0.4832,0.37857 1.1188,0.47388 l 4.3945,0.65939 c 0.4699,0.0704 0.772,0.028 0.9064,-0.12713 0.162,-0.15092 0.2752,-0.45541 0.339,-0.91312 l 1.942,-13.94489 c 0.1077,-0.77237 -0.1839,-1.21105 -0.8748,-1.31465 l -3.897,-0.58342 c -0.5527,-0.0828 -0.9353,-0.0676 -1.1487,0.0465 -0.2095,0.0854 -0.4386,0.31374 -0.6878,0.68523 l -1.3834,2.33371 c -0.3365,0.59204 -0.5855,0.86117 -0.7473,0.8077 -0.1579,-0.082 -0.4181,-0.34061 -0.7808,-0.77463 -1.037,-1.26521 -2.5302,-2.49629 -4.4793,-3.69383 -1.9175,-1.22201 -4.2861,-2.04441 -7.105,-2.46704 -0.8806,-0.13203 -1.7402,-0.20868 -2.5787,-0.22892 z m -587.00399,12.88241 c -1.29883,-0.0358 -2.68235,0.0362 -4.15013,0.21601 -5.01851,0.61495 -9.09375,2.22025 -12.22562,4.81624 -3.10411,2.59259 -5.28899,5.84387 -6.55463,9.75394 -1.23792,3.90666 -1.5925,8.15644 -1.06454,12.74908 0.46196,4.01858 1.71037,7.66405 3.74551,10.9368 2.03514,3.27275 4.81123,5.7709 8.32714,7.49412 3.54366,1.7198 7.75501,2.28053 12.63489,1.68258 3.52126,-0.43146 6.57494,-1.38796 9.16016,-2.86907 2.60963,-1.5132 4.70043,-3.50083 6.273,-5.96398 1.56926,-2.49183 2.56778,-5.42351 2.99569,-8.79429 0.0337,-0.44076 -0.0253,-0.70989 -0.17726,-0.80771 -0.12739,-0.12992 -0.44039,-0.1645 -0.93948,-0.10335 l -5.61464,0.68782 c -0.47135,0.0578 -0.77917,0.19778 -0.92242,0.41909 -0.11884,0.1892 -0.21529,0.44839 -0.28991,0.77774 -0.74341,2.82727 -1.90127,5.10815 -3.47317,6.8435 -1.54415,1.73196 -3.66053,2.76328 -6.34999,3.09284 -2.41222,0.29557 -4.41538,-0.12855 -6.00894,-1.27228 -1.59359,-1.14372 -2.8484,-2.76588 -3.76463,-4.86586 -0.89179,-2.13207 -1.52825,-4.48478 -1.90842,-7.05796 -0.0871,-0.51327 -0.0712,-0.86447 0.0475,-1.05368 0.11885,-0.18922 0.44213,-0.31578 0.96893,-0.38034 l 26.7839,-3.28197 c 0.60998,-0.0748 0.98822,-0.20841 1.13481,-0.40101 0.17428,-0.19601 0.2264,-0.59558 0.1571,-1.19838 -0.22439,-1.95187 -0.62645,-3.98371 -1.20665,-6.09575 -0.5835,-2.14074 -1.4242,-4.19174 -2.52129,-6.15311 -1.09713,-1.96138 -2.50406,-3.68087 -4.22042,-5.15885 -1.69191,-1.51009 -3.77335,-2.62295 -6.24561,-3.33882 -1.39062,-0.40268 -2.921,-0.62726 -4.59093,-0.67334 z m -145.33325,0.48266 c -0.33552,-0.0131 -0.81393,0.0293 -1.43506,0.12607 l -21.65656,3.39462 c -0.91095,0.14279 -1.44845,0.32933 -1.6123,0.55966 -0.14045,0.19743 -0.28231,0.67286 -0.42581,1.42627 l -7.38095,41.46 c -0.19936,1.14224 -0.36947,2.00207 -0.51056,2.57969 -0.11349,0.57328 -0.33641,0.88601 -0.66766,0.93793 -0.30366,0.0476 -0.61663,-0.35668 -0.93999,-1.21233 -0.32756,-0.88424 -0.75281,-1.8552 -1.27538,-2.91352 L 645.6223,142.44598 c -0.28558,-0.59845 -0.51241,-1.08947 -0.68161,-1.47227 -0.17338,-0.41138 -0.44035,-0.69057 -0.80099,-0.8387 -0.33302,-0.15246 -0.92811,-0.1616 -1.78386,-0.0268 l -23.64352,3.70572 c -0.69013,0.10817 -1.19442,0.23079 -1.51309,0.36846 -0.32287,0.10907 -0.42803,0.54974 -0.3147,1.32136 l 0.75602,5.14439 c 0.1133,0.77163 0.26549,1.23013 0.4563,1.37563 0.21422,0.11261 0.7076,0.10785 1.48054,-0.0134 l 5.54901,-0.8692 c 0.74533,-0.11685 1.25444,-0.1091 1.52807,0.0237 0.27363,0.13253 0.45125,0.57192 0.53279,1.3193 l 4.27518,44.10634 c 0.10249,0.89029 0.10223,1.56333 -5.2e-4,2.01797 -0.10266,0.45464 -0.63683,0.75755 -1.603,0.90899 l -6.12779,0.96015 c -0.66253,0.10388 -1.06213,0.26905 -1.19838,0.49506 -0.13624,0.22601 -0.15444,0.68197 -0.0537,1.36787 l 0.65474,4.45813 c 0.13433,0.91452 0.329,1.46892 0.58343,1.66294 0.25441,0.19403 0.82299,0.22139 1.70635,0.0827 l 23.06475,-3.61528 c 0.85575,-0.13414 1.43393,-0.3268 1.73581,-0.57878 0.30187,-0.25197 0.38599,-0.83473 0.25167,-1.74923 l -0.62994,-4.2876 c -0.12174,-0.82877 -0.30739,-1.32596 -0.55759,-1.49138 -0.25444,-0.19404 -0.7823,-0.22783 -1.58285,-0.10232 l -5.25859,0.82424 c -1.15941,0.18172 -1.88092,0.0757 -2.16472,-0.31833 -0.28381,-0.39407 -0.49132,-1.13694 -0.62323,-2.22725 l -3.88556,-37.41271 c -0.18824,-1.66621 -0.30135,-2.81822 -0.33848,-3.4556 -0.0142,-0.67029 0.10397,-1.02509 0.35243,-1.06402 0.35886,-0.0563 0.72783,0.33949 1.1064,1.1865 0.37437,0.81841 0.75538,1.78172 1.14412,2.89025 0.41635,1.10421 0.82586,2.06325 1.22783,2.87735 l 21.01887,41.876 c 0.39357,0.75693 0.76788,1.28337 1.1219,1.57871 0.38161,0.29102 1.1241,0.35035 2.22828,0.17725 l 4.6793,-0.73381 c 0.96617,-0.15142 1.56833,-0.37752 1.80661,-0.67799 0.26588,-0.30481 0.46841,-0.8479 0.60771,-1.62987 l 7.89565,-46.32069 c 0.20356,-1.11366 0.36034,-2.16145 0.47025,-3.14348 0.10994,-0.98204 0.24737,-1.77847 0.41187,-2.389 0.16029,-0.63909 0.39192,-0.98283 0.69556,-1.03043 0.33128,-0.0519 0.57035,0.42292 0.71727,1.42317 0.17452,0.99593 0.32764,2.2285 0.45889,3.699 0.13128,1.47051 0.31144,2.88966 0.54053,4.25711 l 5.61517,31.30971 c 0.14092,0.76732 0.10827,1.31291 -0.0982,1.63763 -0.20646,0.32473 -0.70997,0.54993 -1.5105,0.67541 l -5.42447,0.85059 c -0.82813,0.12981 -1.34937,0.32826 -1.56424,0.59584 -0.18726,0.26325 -0.21638,0.83798 -0.0863,1.72392 l 0.6108,4.1584 c 0.12593,0.85736 0.33035,1.38076 0.61237,1.57045 0.30964,0.18536 0.85022,0.21728 1.62316,0.0961 l 27.78487,-4.35477 c 0.82815,-0.12981 1.30417,-0.35074 1.42782,-0.6625 0.12366,-0.31175 0.12435,-0.88223 0.003,-1.71101 l -0.64183,-4.37182 c -0.1133,-0.77164 -0.25174,-1.23251 -0.41496,-1.38234 -0.16321,-0.14985 -0.61736,-0.1665 -1.36271,-0.0496 l -6.33605,0.99321 c -0.74532,0.11685 -1.20349,0.0716 -1.3751,-0.13539 -0.17161,-0.207 -0.32525,-0.6798 -0.46199,-1.41851 l -8.09408,-43.85779 c -0.14933,-0.82447 -0.162,-1.39308 -0.0382,-1.70481 0.12364,-0.31175 0.59914,-0.53268 1.4273,-0.66249 l 5.13457,-0.8046 c 0.96619,-0.15144 1.51538,-0.35414 1.64745,-0.60875 0.13204,-0.25459 0.12673,-0.868 -0.016,-1.83968 l -0.62942,-4.28656 c -0.1385,-0.9431 -0.37961,-1.43174 -0.72347,-1.46554 -0.0802,-0.0167 -0.176,-0.0273 -0.28783,-0.0315 z m 142.59285,5.87199 c 0.92525,0.0231 1.77255,0.26053 2.54144,0.71211 1.02521,0.60208 1.91039,1.4543 2.65566,2.55643 0.74199,1.07342 1.34478,2.28054 1.80815,3.62096 0.46338,1.34043 0.7829,2.65514 0.95912,3.94343 0.0772,0.42717 0.0666,0.70411 -0.031,0.83251 -0.101,0.0997 -0.42835,0.18373 -0.98289,0.25166 l -14.09888,1.72806 c -0.60997,0.0748 -0.96672,0.0307 -1.06969,-0.13125 -0.10629,-0.19074 -0.17504,-0.54602 -0.20671,-1.06609 -0.11352,-1.96545 0.051,-3.83367 0.49403,-5.60534 0.43972,-1.80038 1.2207,-3.32301 2.34301,-4.56665 1.15003,-1.24704 2.69555,-1.98893 4.6364,-2.22674 0.3258,-0.0399 0.64294,-0.0568 0.95137,-0.0491 z m -103.10637,8.08116 c -1.43899,-0.0291 -3.00594,0.077 -4.69998,0.31936 -2.51684,0.35951 -4.97321,0.95843 -7.36957,1.79679 -2.39637,0.83838 -4.53517,1.91731 -6.41614,3.2365 -1.88483,1.29055 -3.3301,2.81025 -4.33617,4.55889 -0.97842,1.74471 -1.32604,3.67667 -1.04232,5.79551 0.28373,2.11886 1.17717,3.52257 2.67891,4.21266 1.50175,0.6901 3.20655,0.89892 5.11493,0.62632 1.82541,-0.26074 3.31661,-1.01315 4.47466,-2.25826 1.15805,-1.2451 1.61852,-2.75573 1.3808,-4.53099 -0.15719,-1.17394 -0.4344,-1.98064 -0.83147,-2.42 -0.37325,-0.47194 -0.72706,-0.80038 -1.06196,-0.98599 -0.33874,-0.21423 -0.53729,-0.53634 -0.59479,-0.96583 -0.0498,-0.37224 0.15309,-0.75132 0.60875,-1.1374 0.48331,-0.39003 1.1267,-0.74454 1.92959,-1.06349 0.83055,-0.32291 1.73001,-0.55317 2.69803,-0.69144 1.71478,-0.24494 3.15723,-0.10109 4.3279,0.43202 1.17068,0.53312 2.07568,1.39628 2.71457,2.58899 0.6627,1.16011 1.10703,2.58428 1.33324,4.27364 l 0.66146,4.93975 c 0.0691,0.51538 0.0418,0.84033 -0.0811,0.97462 -0.0953,0.13032 -0.37834,0.22895 -0.84852,0.2961 l -3.40186,0.48575 c -4.75713,0.67951 -8.7658,1.89399 -12.02666,3.64371 -3.26469,1.72111 -5.67397,3.83126 -7.22798,6.32934 -1.55399,2.49807 -2.13146,5.23561 -1.73272,8.21345 0.49845,3.72232 2.10846,6.38131 4.83072,7.97677 2.72226,1.59544 6.18557,2.0929 10.38955,1.49241 2.65513,-0.37926 4.82918,-0.98161 6.5226,-1.80712 1.69341,-0.8255 3.03771,-1.73239 4.03282,-2.72076 1.01895,-1.02097 1.80674,-1.97977 2.36316,-2.87631 0.37353,-0.57862 0.68673,-0.87107 0.93948,-0.87798 0.25277,-0.007 0.61652,0.29072 1.09193,0.89399 0.57754,0.73456 1.26619,1.45401 2.06499,2.15698 0.82644,0.69901 1.88286,1.21854 3.16879,1.56011 1.28596,0.34157 2.93833,0.36846 4.95733,0.0801 l 0.0408,-0.006 c 1.82541,-0.26074 3.39983,-0.8215 4.72219,-1.68155 1.35002,-0.86399 2.47929,-1.90033 3.38843,-3.10988 0.90529,-1.23817 1.59187,-2.53226 2.05931,-3.88296 0.13226,-0.48579 0.003,-0.8181 -0.38706,-0.99581 l -3.37602,-1.53118 c -0.39789,-0.23497 -0.70276,-0.0891 -0.91416,0.43719 -0.44279,1.11374 -0.94495,1.88564 -1.5074,2.31613 -0.5663,0.40189 -1.14003,0.64413 -1.72082,0.72709 -0.58082,0.0829 -1.11921,-0.0436 -1.61541,-0.38137 -0.46855,-0.34161 -0.76036,-0.94244 -0.8754,-1.80144 l -2.94455,-21.99043 c -0.39492,-2.9492 -1.29286,-5.44686 -2.69441,-7.49359 -1.37389,-2.05068 -3.33084,-3.50742 -5.87044,-4.37028 -1.4285,-0.48534 -3.06791,-0.7466 -4.91804,-0.78393 z m 47.29944,0.4501 c 1.54933,0.0212 2.9942,0.54589 4.33461,1.57562 1.64974,1.26737 3.02771,3.06623 4.13412,5.39656 1.13411,2.32669 1.88716,4.98066 2.25827,7.96231 0.3711,2.98166 0.29285,5.74637 -0.23462,8.29355 -0.4998,2.54352 -1.39263,4.64395 -2.67839,6.30091 -1.28577,1.65695 -2.91152,2.61587 -4.87774,2.87683 -1.77236,0.23522 -3.44183,-0.28638 -5.00847,-1.56477 -1.53896,-1.28207 -2.86182,-3.08792 -3.96824,-5.41827 -1.07872,-2.33402 -1.80395,-4.99252 -2.17507,-7.97419 -0.3711,-2.98167 -0.3202,-5.74182 0.15193,-8.28166 0.49981,-2.54353 1.33701,-4.63694 2.51199,-6.27921 1.20269,-1.64592 2.6899,-2.58579 4.46227,-2.82101 0.36866,-0.049 0.73181,-0.071 1.08934,-0.0662 z m -45.55743,24.39386 c 0.4319,0.002 0.68117,0.25339 0.74827,0.75448 l 0.44339,3.30729 c 0.44859,3.35009 0.10969,5.98096 -1.01544,7.89254 -1.12902,1.88294 -2.84105,2.98871 -5.13664,3.31659 -1.65946,0.23704 -3.11775,-0.0214 -4.37441,-0.77566 -1.23283,-0.78687 -1.98367,-2.18301 -2.25206,-4.18734 -0.21855,-1.63209 -0.0244,-3.13311 0.58136,-4.5036 0.60188,-1.39911 1.61347,-2.58015 3.03496,-3.5419 1.42148,-0.96175 3.25191,-1.60184 5.49216,-1.92185 l 2.28204,-0.32608 c 0.0691,-0.01 0.13467,-0.0148 0.19637,-0.0146 z m -130.39515,3.46388 c -0.179,-0.0134 -0.40663,0.004 -0.68212,0.0506 l -25.57777,4.3651 c -0.55095,0.094 -0.89344,0.25483 -1.0268,0.48266 -0.10583,0.22314 -0.1127,0.62021 -0.0212,1.19062 l 0.6904,4.32067 c 0.10489,0.65596 0.24003,1.05748 0.40514,1.20509 0.19263,0.14291 0.6056,0.16037 1.23919,0.0522 l 25.37106,-4.32945 c 0.6336,-0.10815 0.98988,-0.27196 1.06816,-0.49041 0.10126,-0.25167 0.10186,-0.69082 0.002,-1.31826 l -0.6842,-4.27829 c -0.0958,-0.59892 -0.22608,-0.97222 -0.39119,-1.11983 -0.0825,-0.0739 -0.2132,-0.11735 -0.39223,-0.13074 z m -52.32703,0.0899 c -1.24276,-0.0146 -2.58572,0.11245 -4.02817,0.38189 -2.85745,0.53372 -5.1782,1.54059 -6.96238,3.01946 -1.75671,1.47374 -3.20254,3.18271 -4.33771,5.12785 -0.41257,0.7233 -0.78771,1.17548 -1.125,1.35599 -0.33728,0.18048 -0.84407,-0.12212 -1.52032,-0.90641 -1.35752,-1.59703 -3.00533,-2.74297 -4.94285,-3.43854 -1.91505,-0.72916 -4.35624,-0.81678 -7.32359,-0.26252 -2.85744,0.53372 -5.17591,1.55451 -6.95512,3.06182 -1.75174,1.5022 -3.07985,3.23408 -3.9853,5.19504 -0.28514,0.64075 -0.54536,1.10036 -0.7803,1.37924 -0.21245,0.24531 -0.4035,0.2071 -0.5731,-0.11369 -0.17459,-0.34926 -0.35611,-1.06365 -0.54519,-2.14457 l -0.35811,-2.04846 c -0.12437,-0.71112 -0.33703,-1.11212 -0.63666,-1.20302 -0.29962,-0.0909 -0.77873,-0.0747 -1.43816,0.0481 l -14.96085,2.79414 c -0.74183,0.13857 -1.21344,0.35928 -1.41593,0.66146 -0.18001,0.26861 -0.19808,0.81529 -0.0537,1.64021 l 0.56689,3.2427 c 0.13432,0.76801 0.35427,1.21183 0.65887,1.33118 0.29963,0.0909 0.82033,0.0667 1.56218,-0.0719 l 3.25613,-0.60823 c 0.71435,-0.13344 1.21013,-0.13789 1.48725,-0.0134 0.27715,0.12448 0.48269,0.57091 0.61702,1.33893 l 4.79092,27.39316 c 0.11936,0.68268 0.11698,1.15241 -0.009,1.41077 -0.10257,0.22477 -0.49754,0.40189 -1.18443,0.5302 l -4.28605,0.80046 c -0.52201,0.0975 -0.84596,0.27547 -0.97099,0.53383 -0.10256,0.22478 -0.10878,0.59337 -0.0201,1.10535 l 0.6935,3.96823 c 0.11444,0.65425 0.31042,1.04289 0.58755,1.16737 0.27216,0.096 0.69685,0.0902 1.27383,-0.0176 l 22.21364,-4.1491 c 0.57697,-0.10774 0.91198,-0.30226 1.00458,-0.58394 0.0877,-0.31011 0.0841,-0.73544 -0.0104,-1.2759 l -0.65629,-3.75481 c -0.10943,-0.62579 -0.26212,-1.00839 -0.45683,-1.14825 -0.1947,-0.13989 -0.58005,-0.15631 -1.15703,-0.0486 l -2.76158,0.51574 c -0.76932,0.14368 -1.24011,0.129 -1.41232,-0.0444 -0.17718,-0.2019 -0.33509,-0.70112 -0.47439,-1.49758 l -2.70888,-15.48791 c -0.51245,-2.92984 -0.58244,-5.51673 -0.2088,-7.76025 0.40114,-2.24864 1.17786,-4.05381 2.3301,-5.41465 1.14727,-1.38927 2.58661,-2.24552 4.31756,-2.56884 1.78591,-0.33358 3.16167,0.0703 4.1274,1.21182 0.98823,1.10788 1.72121,3.02704 2.19884,5.75778 l 3.8132,21.80333 c 0.11936,0.68266 0.11692,1.15346 -0.009,1.41179 -0.0976,0.25322 -0.48979,0.44375 -1.17667,0.57206 l -2.10168,0.39274 c -0.68689,0.12829 -1.10684,0.3246 -1.25936,0.58808 -0.13003,0.22991 -0.13246,0.70016 -0.009,1.41128 l 0.6041,3.45612 c 0.12439,0.71113 0.29995,1.14836 0.52709,1.31155 0.22718,0.16318 0.67075,0.1831 1.33016,0.0599 l 19.28719,-3.60288 c 0.79678,-0.14883 1.2878,-0.34324 1.47278,-0.58342 0.17999,-0.26861 0.2008,-0.80138 0.0615,-1.59784 l -0.64906,-3.71244 c -0.10452,-0.59733 -0.2904,-0.92976 -0.55759,-0.99735 -0.27216,-0.096 -0.69685,-0.0898 -1.27383,0.0181 l -2.06085,0.38499 c -0.60445,0.11293 -1.0387,0.0615 -1.30328,-0.15348 -0.23709,-0.22009 -0.41041,-0.64285 -0.51987,-1.26866 L 544.1169,198.007 c -0.51245,-2.92985 -0.60913,-5.51099 -0.29037,-7.74424 0.3462,-2.23837 1.08127,-4.0357 2.20606,-5.39139 1.14726,-1.38928 2.65492,-2.25809 4.52324,-2.60709 1.7859,-0.33357 3.1622,0.0703 4.12792,1.21182 0.98822,1.10788 1.72067,3.02705 2.19831,5.75779 l 3.82147,21.84621 c 0.12439,0.71113 0.10739,1.18398 -0.0502,1.41903 -0.13003,0.22991 -0.5517,0.41176 -1.26607,0.54519 l -2.72025,0.50798 c -0.60446,0.11293 -0.96443,0.32709 -1.07953,0.64234 -0.0926,0.28166 -0.0791,0.76426 0.0404,1.44694 l 0.54467,3.11402 c 0.14924,0.85335 0.37926,1.35443 0.68884,1.50223 0.30958,0.14779 0.87591,0.14416 1.70015,-0.01 l 21.1429,-3.94911 c 0.85174,-0.1591 1.35107,-0.38401 1.49862,-0.67593 0.17004,-0.3255 0.17839,-0.92947 0.0243,-1.81126 l -0.56018,-3.20032 c -0.10943,-0.6258 -0.27496,-1.00575 -0.49712,-1.1405 -0.22717,-0.1632 -0.61529,-0.19407 -1.16479,-0.0915 l -3.87418,0.72399 c -0.76932,0.1437 -1.2812,0.13673 -1.53583,-0.0217 -0.22715,-0.16319 -0.40826,-0.62932 -0.5426,-1.39733 l -4.00751,-22.9123 c -0.80103,-4.57967 -2.48487,-7.87796 -5.05085,-9.89551 -1.76683,-1.40605 -4.01634,-2.12492 -6.74895,-2.1575 z m -132.76554,13.5413 c -0.16495,-0.0204 -0.34982,-0.008 -0.55448,0.0383 l -3.19258,0.71416 c -0.68219,0.15264 -1.07129,0.34326 -1.16634,0.57154 -0.0736,0.19395 -0.10529,0.58567 -0.0961,1.17513 -0.0148,2.93129 -0.25979,5.3075 -0.73535,7.12928 -0.4542,1.78744 -1.1172,3.19321 -1.98851,4.21628 -0.87134,1.02306 -1.92191,1.8049 -3.15123,2.34611 -1.20794,0.50685 -2.58952,0.9346 -4.14497,1.28261 -0.57305,0.1282 -0.92336,0.2946 -1.05161,0.50074 -0.13415,0.17789 -0.13938,0.56374 -0.0144,1.15704 l 0.86041,4.11085 c 0.11831,0.56506 0.27725,0.91408 0.47646,1.04697 0.19331,0.10463 0.56269,0.0962 1.10847,-0.0257 l 5.03483,-1.12706 c 0.54577,-0.1221 0.91363,-0.0713 1.10329,0.15244 0.21105,0.18938 0.37573,0.56721 0.49402,1.13223 l 5.50975,26.31674 c 0.72166,3.44678 2.16191,5.89023 4.32015,7.32979 2.15233,1.4113 5.1528,1.68662 9.00049,0.82579 2.75611,-0.61663 4.94264,-1.56447 6.56032,-2.84324 1.61765,-1.27877 2.85173,-2.75293 3.70209,-4.42195 0.84434,-1.6971 1.49638,-3.4252 1.95647,-5.18418 l 10e-6,-5.2e-4 c 0.12939,-0.47228 0.0919,-0.78926 -0.11321,-0.95033 -0.18375,-0.19549 -0.52093,-0.37155 -1.01079,-0.52813 l -2.61689,-0.83405 c -0.51122,-0.12224 -0.85065,-0.1052 -1.01803,0.0506 -0.17326,0.12749 -0.33532,0.44437 -0.48627,0.95135 -0.45286,1.52096 -1.02014,2.6981 -1.70274,3.53105 -0.6553,0.82686 -1.46079,1.34696 -2.41587,1.56063 -1.03697,0.23201 -1.91848,0.0449 -2.64532,-0.5612 -0.73277,-0.63462 -1.26503,-1.74274 -1.59629,-3.32487 l -5.2002,-24.83414 c -0.11239,-0.53678 -0.0662,-0.93171 0.13798,-1.18443 0.23148,-0.25881 0.59349,-0.44304 1.08469,-0.55293 l 8.47287,-1.89549 c 0.4366,-0.0976 0.73853,-0.2251 0.90589,-0.38085 0.16143,-0.184 0.19776,-0.48728 0.10904,-0.91106 l -0.94052,-4.49224 c -0.11239,-0.53677 -0.26507,-0.85758 -0.45837,-0.96221 -0.17193,-0.13899 -0.5041,-0.15416 -0.99529,-0.0445 l -8.55503,1.9141 c -0.57307,0.12821 -0.98881,0.11791 -1.2485,-0.031 -0.23244,-0.15503 -0.41402,-0.54323 -0.54415,-1.16479 l -2.24484,-10.72187 c -0.13754,-0.65684 -0.45391,-1.01523 -0.94879,-1.07642 z m 49.68224,2.93884 c -2.12758,-0.10293 -4.39605,0.0959 -6.80475,0.59686 -4.81741,1.00204 -8.65532,2.93594 -11.51506,5.80119 -2.85975,2.86526 -4.76338,6.32788 -5.71025,10.38749 -0.95239,4.03125 -0.9872,8.31368 -0.10438,12.84779 0.77247,3.96734 2.32428,7.47734 4.65604,10.53062 2.33177,3.05328 5.34203,5.27357 9.02942,6.65903 3.68186,1.35713 7.93118,1.53431 12.74859,0.53226 4.8174,-1.00205 8.65909,-2.9214 11.52436,-5.7583 2.86525,-2.83692 4.77662,-6.25693 5.73453,-10.25984 0.95789,-4.00293 0.99499,-8.27132 0.11214,-12.80542 -0.77246,-3.96734 -2.32703,-7.49242 -4.66432,-10.57403 -2.3373,-3.08162 -5.35254,-5.32893 -9.04544,-6.74275 -1.84646,-0.7069 -3.83331,-1.11195 -5.96088,-1.2149 z m -3.55792,6.58977 c 1.42132,0.0781 2.66766,0.60384 3.73827,1.57717 1.55726,1.41574 2.83646,3.44993 3.83697,6.10195 0.99501,2.62367 1.80651,5.5503 2.43552,8.78086 0.38624,1.98366 0.64699,3.9786 0.78135,5.98517 0.12879,1.97823 0.0333,3.82699 -0.28732,5.54487 -0.32608,1.68954 -0.95674,3.13252 -1.89137,4.32945 -0.91279,1.16289 -2.23143,1.92387 -3.95582,2.28255 -2.29923,0.47825 -4.2274,0.01 -5.78467,-1.40611 -1.55725,-1.41576 -2.83317,-3.43589 -3.82819,-6.05958 -1.00052,-2.65199 -1.81581,-5.5932 -2.44481,-8.82375 -0.38622,-1.98368 -0.64372,-3.96454 -0.77256,-5.94279 -0.13441,-2.00657 -0.0382,-3.85482 0.28783,-5.54436 0.32058,-1.71789 0.93724,-3.15778 1.85002,-4.32067 0.93465,-1.19692 2.26398,-1.97502 3.98839,-2.33371 0.71851,-0.14944 1.40035,-0.20655 2.04639,-0.17105 z m -68.53949,8.82479 c -0.13815,-0.017 -0.292,-0.005 -0.46199,0.0356 l -3.83542,0.91932 c -0.54397,0.13044 -0.89489,0.28898 -1.05368,0.47542 -0.16512,0.15829 -0.29855,0.45774 -0.4005,0.89763 l -0.47025,2.69389 c -0.10578,0.6782 -0.24389,1.02309 -0.41342,1.03404 -0.17582,-0.0171 -0.50829,-0.15965 -0.99839,-0.42788 -1.40959,-0.7896 -3.23268,-1.37684 -5.46839,-1.76062 -2.21482,-0.41846 -4.70958,-0.29471 -7.48378,0.37052 -2.7742,0.66524 -5.14554,1.78312 -7.11481,3.35329 -1.94209,1.56364 -3.31451,3.49466 -4.11707,5.79396 -0.80886,2.27114 -0.90089,4.80093 -0.27543,7.58869 0.64441,2.8722 1.77787,5.04826 3.3998,6.52879 1.61561,1.45237 3.492,2.47133 5.62962,3.05667 2.16483,0.57883 4.39752,0.94838 6.69779,1.10897 2.29396,0.13243 4.46568,0.29463 6.51484,0.48576 2.07007,0.15644 3.82453,0.56649 5.26324,1.23041 1.43239,0.63578 2.33509,1.7839 2.70785,3.44527 0.36012,1.60505 0.0662,3.04072 -0.88211,4.30671 -0.92752,1.23135 -2.52055,2.11796 -4.778,2.65928 -1.98546,0.47609 -3.91674,0.55379 -5.79448,0.23252 -1.85056,-0.32779 -3.57943,-1.07057 -5.18625,-2.2283 -1.57965,-1.16427 -2.95622,-2.76325 -4.12895,-4.7966 -0.26429,-0.41142 -0.47992,-0.6711 -0.64751,-0.77928 -0.17389,-0.13636 -0.55971,-0.13315 -1.15807,0.0103 l -4.32428,1.03715 c -0.46237,0.11086 -0.74022,0.28136 -0.83199,0.51108 -0.0645,0.22321 -0.0398,0.58817 0.0739,1.09502 l 3.16517,14.10766 c 0.10743,0.4787 0.23468,0.78938 0.38138,0.93224 0.18021,0.16451 0.48777,0.19477 0.92294,0.0904 l 3.9579,-0.94878 c 0.51677,-0.1239 0.85057,-0.29337 1.00304,-0.50798 0.18599,-0.19297 0.32293,-0.4782 0.41031,-0.85524 l 0.57051,-2.62982 c 0.1165,-0.50271 0.28367,-0.77981 0.50126,-0.83199 0.21126,-0.0804 0.5288,-0.008 0.95188,0.21705 1.57909,0.77862 3.49707,1.3428 5.75365,1.69188 2.2566,0.34911 4.73122,0.20023 7.42384,-0.44544 3.18217,-0.76306 5.9375,-1.95801 8.26668,-3.5848 2.32917,-1.62679 3.98841,-3.68564 4.97696,-6.17792 1.01574,-2.49879 1.14713,-5.42374 0.39532,-8.77465 -0.62548,-2.78776 -1.75606,-4.89098 -3.39256,-6.30866 -1.61562,-1.45239 -3.51627,-2.45052 -5.70197,-2.99466 -2.16483,-0.57883 -4.42424,-0.94179 -6.77892,-1.08934 -2.32748,-0.15403 -4.54005,-0.30584 -6.63732,-0.45578 -2.10357,-0.17808 -3.88879,-0.59626 -5.35472,-1.25367 -1.4387,-0.66392 -2.33739,-1.79836 -2.6975,-3.40341 -0.2843,-1.26715 -0.0725,-2.43075 0.6351,-3.49075 0.73519,-1.0665 1.97331,-1.80881 3.71398,-2.22621 2.36625,-0.56741 4.83539,-0.35793 7.40679,0.62787 2.5714,0.98578 4.77225,2.87659 6.60321,5.672 0.25796,0.38324 0.46649,0.67467 0.62581,0.87385 0.18022,0.1645 0.58315,0.17159 1.20871,0.0217 l 4.32428,-1.03714 c 0.46238,-0.11087 0.72958,-0.26385 0.80046,-0.45889 0.0981,-0.20157 0.0959,-0.52771 -0.005,-0.97824 l -3.07992,-13.72784 c -0.12794,-0.57023 -0.39892,-0.88038 -0.81338,-0.93121 z m -106.27259,6.83368 c -0.23047,-0.0179 -0.55635,0.0321 -0.97771,0.14883 l -3.92379,1.0878 c -0.56631,0.15702 -0.91619,0.3137 -1.04903,0.47025 -0.13284,0.15654 -0.24952,0.42858 -0.3514,0.81597 l -0.4868,4.31034 c -0.24121,0.96472 -0.5028,1.51607 -0.78496,1.65416 -0.25519,0.13061 -0.76199,0.0168 -1.5198,-0.34159 -2.35835,-1.29141 -5.00716,-2.14345 -7.9468,-2.55539 -2.91992,-0.44734 -6.06524,-0.20348 -9.43613,0.73121 -4.50348,1.24876 -8.51047,3.24201 -12.02044,5.98103 -3.49026,2.70364 -6.33449,5.94703 -8.53334,9.72912 -2.17911,3.7467 -3.58699,7.84793 -4.22351,12.30417 -0.6168,4.42083 -0.32038,8.96332 0.88884,13.62604 1.26713,4.88608 3.18987,9.12583 5.76967,12.72016 2.57256,3.56639 5.66128,6.39173 9.26558,8.47492 3.60432,2.08318 7.55086,3.36778 11.83959,3.85455 4.3157,0.4793 8.83343,0.0648 13.55266,-1.24385 5.71701,-1.58523 10.30967,-3.99602 13.77745,-7.23212 3.49476,-3.24359 5.90657,-7.03995 7.23574,-11.38897 1.32193,-4.37694 1.59622,-9.00202 0.82373,-13.87563 -0.0836,-0.54543 -0.24115,-0.87597 -0.47337,-0.99116 -0.20525,-0.12265 -0.65846,-0.0869 -1.3596,0.10751 l -5.38055,1.49241 c -0.64721,0.17946 -1.04574,0.42425 -1.19631,0.73535 -0.13085,0.27571 -0.17331,0.78131 -0.12712,1.51671 0.30908,3.08669 -0.013,6.07905 -0.96687,8.97723 -0.96111,2.87025 -2.5476,5.39004 -4.75992,7.55975 -2.21231,2.1697 -5.031,3.73017 -8.45581,4.67981 -3.88325,1.07677 -7.4243,0.96564 -10.62261,-0.33227 -3.19832,-1.29793 -5.97631,-3.59489 -8.33438,-6.89157 -2.3311,-3.30415 -4.13768,-7.42735 -5.4193,-12.36927 -1.28162,-4.94191 -1.68941,-9.46774 -1.22319,-13.57747 0.48596,-4.14514 1.79247,-7.63533 3.91914,-10.46965 2.15365,-2.8418 5.1048,-4.78196 8.85321,-5.82134 3.26301,-0.90478 6.24117,-1.01262 8.93486,-0.32302 2.68645,0.66173 5.0442,1.89398 7.07244,3.69589 2.02824,1.80195 3.6346,3.93009 4.82038,6.38463 0.29412,0.57686 0.53793,0.95813 0.7307,1.14411 0.21973,0.17851 0.70736,0.16285 1.46244,-0.0468 l 5.54177,-1.53634 c 0.64721,-0.17945 1.02989,-0.37518 1.14825,-0.58756 0.13809,-0.24778 0.12726,-0.67871 -0.032,-1.29295 l -5.17022,-19.93522 c -0.18103,-0.69801 -0.3638,-1.12662 -0.54932,-1.28468 -0.0696,-0.0593 -0.17384,-0.0947 -0.31213,-0.10542 z m 56.6348,6.1123 c -0.17441,-0.007 -0.39691,0.0251 -0.66766,0.0956 l -16.32665,4.24832 c -0.51445,0.13388 -0.81569,0.31684 -0.90331,0.54829 -0.0876,0.23146 -0.0631,0.62738 0.0734,1.18804 l 1.03353,4.24728 c 0.11599,0.47656 0.29611,0.74264 0.54002,0.7984 0.24389,0.0556 0.59597,0.0231 1.05627,-0.0966 l 3.65506,-0.95085 c 0.59568,-0.15498 1.01524,-0.14502 1.25937,0.03 0.26437,0.13987 0.47557,0.53244 0.63251,1.17719 l 3.7667,15.47399 c 0.70281,2.88736 0.85611,5.52964 0.46095,7.92768 -0.40199,2.37004 -1.23098,4.34522 -2.48771,5.92419 -1.25672,1.57896 -2.8061,2.60754 -4.64725,3.08663 -1.94944,0.50728 -3.55098,0.19408 -4.80591,-0.93999 -1.26174,-1.16209 -2.22023,-3.08886 -2.87527,-5.78001 l -6.91896,-28.42462 c -0.16377,-0.67279 -0.37146,-1.05101 -0.62219,-1.13482 -0.23046,-0.11888 -0.67052,-0.0942 -1.32033,0.075 l -16.44861,4.27985 c -0.64981,0.16908 -1.02798,0.38718 -1.13585,0.6537 -0.11469,0.23851 -0.0874,0.7079 0.0832,1.40871 l 0.89039,3.65868 c 0.15012,0.61672 0.3543,0.98061 0.61184,1.09244 0.27781,0.0767 0.71434,0.0377 1.31001,-0.11729 l 4.38629,-1.14101 c 0.54151,-0.1409 0.92139,-0.12088 1.13843,0.061 0.24412,0.17493 0.43755,0.55696 0.58085,1.14566 l 5.53713,22.749 c 0.73011,2.99948 1.82112,5.41308 3.2737,7.2409 1.47965,1.82078 3.36799,3.01321 5.66476,3.57808 2.31705,0.52978 5.12728,0.36499 8.4305,-0.49455 3.51984,-0.91591 6.1925,-2.29629 8.0176,-4.14238 1.81826,-1.87412 3.10769,-4.02856 3.86849,-6.46214 0.21551,-0.65224 0.45922,-0.9541 0.73019,-0.90537 0.27098,0.0487 0.46383,0.3115 0.57981,0.78807 l 0.93173,3.82612 c 0.17741,0.72883 0.37414,1.18486 0.59118,1.36684 0.24412,0.17495 0.70494,0.17411 1.38182,-0.002 l 15.96131,-4.15375 c 0.54152,-0.14091 0.84275,-0.32284 0.9033,-0.54725 0.0808,-0.25949 0.0492,-0.6836 -0.094,-1.27228 l -0.99322,-4.07933 c -0.11599,-0.47656 -0.29912,-0.75647 -0.54985,-0.84026 -0.22363,-0.0908 -0.5385,-0.0828 -0.94462,0.023 l -4.42712,1.15135 c -0.70398,0.18318 -1.18475,0.2188 -1.4423,0.10697 -0.23047,-0.11889 -0.43092,-0.52858 -0.60151,-1.22938 l -8.28012,-34.01756 c -0.13647,-0.56066 -0.29641,-0.9211 -0.47955,-1.08211 -0.078,-0.084 -0.20389,-0.13017 -0.37827,-0.13694 z" /></g></svg>
