<?xml version="1.0" encoding="UTF-8" standalone="no"?>
<svg
   width="511.93542"
   height="384.01047"
   viewBox="0 0 511.93542 384.01047"
   version="1.1"
   id="svg4"
   sodipodi:docname="youtube.svg"
   inkscape:version="1.2.2 (732a01da63, 2022-12-09)"
   xmlns:inkscape="http://www.inkscape.org/namespaces/inkscape"
   xmlns:sodipodi="http://sodipodi.sourceforge.net/DTD/sodipodi-0.dtd"
   xmlns="http://www.w3.org/2000/svg"
   xmlns:svg="http://www.w3.org/2000/svg">
  <defs
     id="defs8" />
  <sodipodi:namedview
     id="namedview6"
     pagecolor="#ffffff"
     bordercolor="#111111"
     borderopacity="1"
     inkscape:showpageshadow="0"
     inkscape:pageopacity="0"
     inkscape:pagecheckerboard="1"
     inkscape:deskcolor="#d1d1d1"
     showgrid="false"
     inkscape:zoom="1.6191406"
     inkscape:cx="104.68516"
     inkscape:cy="192.0772"
     inkscape:window-width="1920"
     inkscape:window-height="1009"
     inkscape:window-x="-8"
     inkscape:window-y="-8"
     inkscape:window-maximized="1"
     inkscape:current-layer="svg4" />
  <path
     d="m 508.64608,84.79 c 0,-45 -33.1,-81.2 -74,-81.2 C 379.24608,1 322.74608,0 265.00608,0 h -18 c -57.6,0 -114.2,1 -169.599999,3.6 -40.8,0 -73.8999999,36.4 -73.8999999,81.4 -2.5,35.59 -3.56000002,71.19 -3.50000002,106.79 q -0.15,53.4 3.40000002,106.9 c 0,45 33.0999999,81.5 73.8999999,81.5 58.199999,2.7 117.899999,3.9 178.599999,3.8 q 91.2,0.3 178.6,-3.8 c 40.9,0 74,-36.5 74,-81.5 2.4,-35.7 3.5,-71.3 3.4,-107 q 0.34,-53.4 -3.26,-106.9 z m -301.64,205.1 V 93.39 l 145,98.2 z"
     id="path2" />
</svg>
