<?xml version="1.0" encoding="UTF-8" standalone="no"?>
<!-- Created with Inkscape (http://www.inkscape.org/) -->

<svg
   width="1000"
   height="1000"
   viewBox="0 0 264.58333 264.58333"
   version="1.1"
   id="svg5"
   xml:space="preserve"
   sodipodi:docname="DC-Shape.svg"
   inkscape:version="1.2.2 (732a01da63, 2022-12-09)"
   xmlns:inkscape="http://www.inkscape.org/namespaces/inkscape"
   xmlns:sodipodi="http://sodipodi.sourceforge.net/DTD/sodipodi-0.dtd"
   xmlns="http://www.w3.org/2000/svg"
   xmlns:svg="http://www.w3.org/2000/svg"><sodipodi:namedview
     id="namedview7"
     pagecolor="#ffffff"
     bordercolor="#111111"
     borderopacity="1"
     inkscape:showpageshadow="0"
     inkscape:pageopacity="0"
     inkscape:pagecheckerboard="1"
     inkscape:deskcolor="#d1d1d1"
     inkscape:document-units="mm"
     showgrid="false"
     inkscape:zoom="0.26110523"
     inkscape:cx="15.319494"
     inkscape:cy="394.47697"
     inkscape:window-width="1920"
     inkscape:window-height="1009"
     inkscape:window-x="-8"
     inkscape:window-y="-8"
     inkscape:window-maximized="1"
     inkscape:current-layer="layer1" /><defs
     id="defs2" /><g
     inkscape:label="Layer 1"
     inkscape:groupmode="layer"
     id="layer1"><path
       id="path1279"
       style="fill:#000000;stroke-width:0.160717"
       d="m 117.32338,0 c -0.27952,11.511721 -0.55035,23.318933 -0.55035,25.229468 0,6.922675 0.002,13.541179 -3.88349,18.576644 -5.33955,7.491474 -15.924014,8.513262 -22.522144,1.850533 -6.28592,-5.998669 -5.50314,-15.536275 -2.93367,-23.073527 1.6043,-6.918754 -6.36436,-5.145319 -9.04337,-1.533757 -7.7827,7.189549 -13.81129,16.238183 -17.73277,26.078512 -5.19068,17.241005 -4.61403,36.164569 1.15548,53.208637 2.66598,7.31301 7.23257,14.21292 7.32617,22.34644 0.63015,8.8024 -4.89929,16.62876 -10.12548,22.87767 -4.60497,6.00483 -8.55752,12.45944 -12.13001,19.15284 -2.03389,5.18265 -3.60931,7.59475 -4.67981,12.13156 -2.25485,10.07002 -2.70324,20.75294 0.0481,30.77331 1.76639,7.43835 5.94216,14.01242 10.55492,19.9068 4.89545,4.31969 9.24466,9.26914 14.86834,12.6783 12.30769,7.30751 25.50947,13.22815 39.441524,16.74574 30.84037,8.26366 64.30546,9.8708 80.69895,4.56562 6.39362,-1.28917 11.46501,-5.44288 17.27956,-8.01502 4.99015,-3.69828 9.70015,-8.28953 12.35326,-13.83326 6.34874,-11.10385 7.94191,-24.3586 6.0265,-36.88147 -1.56603,-8.19325 -4.65585,-16.14931 -8.8439,-23.29574 -2.93063,-5.69544 -6.92938,-10.8914 -10.4867,-15.99385 -5.15931,-7.22448 -11.13184,-14.93561 -10.83345,-24.31376 0.56873,-10.27925 6.79864,-19.17261 9.08213,-28.92175 2.9698,-13.540279 2.25072,-28.016022 -3.55947,-40.728267 -2.90028,-7.966443 -8.23409,-14.622356 -13.44827,-21.158398 -5.42645,-6.550683 -9.1447,2.706801 -7.96231,7.839315 -0.13611,7.670275 -8.64095,11.997315 -15.46882,11.362097 -7.36509,-1.39655 -12.85324,-7.914207 -14.51389,-14.999085 -0.7372,-15.39426 -0.98638,-30.805706 -1.33067,-46.212166 C 146.04444,4.244772 146.00114,2.121926 145.95161,0 Z" /></g></svg>
