<?xml version="1.0" encoding="UTF-8" standalone="no"?>
<!-- Created with Inkscape (http://www.inkscape.org/) -->

<svg
   width="1000"
   height="1000"
   viewBox="0 0 264.58333 264.58333"
   version="1.1"
   id="svg5"
   xml:space="preserve"
   sodipodi:docname="J-Shape.svg"
   inkscape:version="1.2.2 (732a01da63, 2022-12-09)"
   xmlns:inkscape="http://www.inkscape.org/namespaces/inkscape"
   xmlns:sodipodi="http://sodipodi.sourceforge.net/DTD/sodipodi-0.dtd"
   xmlns="http://www.w3.org/2000/svg"
   xmlns:svg="http://www.w3.org/2000/svg"><sodipodi:namedview
     id="namedview7"
     pagecolor="#ffffff"
     bordercolor="#111111"
     borderopacity="1"
     inkscape:showpageshadow="0"
     inkscape:pageopacity="0"
     inkscape:pagecheckerboard="1"
     inkscape:deskcolor="#d1d1d1"
     inkscape:document-units="mm"
     showgrid="false"
     inkscape:zoom="0.36925856"
     inkscape:cx="-35.205684"
     inkscape:cy="479.33892"
     inkscape:window-width="1920"
     inkscape:window-height="1009"
     inkscape:window-x="-8"
     inkscape:window-y="-8"
     inkscape:window-maximized="1"
     inkscape:current-layer="layer1" /><defs
     id="defs2" /><g
     inkscape:label="Layer 1"
     inkscape:groupmode="layer"
     id="layer1"><path
       id="path1327"
       style="fill:#000000;stroke-width:0.39223"
       d="m 147.02491,0 h -26.818 c -0.12616,6.5453234 -0.49501,13.077698 -1.00149,19.603971 0.74022,6.894728 -4.89292,14.297679 -12.30416,12.055595 C 101.53792,30.54195 97.862392,26.096572 93.662278,22.917464 89.260967,17.186132 82.876206,10.981435 78.498862,7.577832 74.121519,4.1742279 67.026571,7.4134282 64.940517,11.927954 62.235969,19.97594 62.79912,28.794592 63.787616,37.125899 c 1.975494,12.362762 4.799448,24.585581 8.162809,36.628772 2.795746,7.123512 3.07799,14.830316 2.654618,22.386231 -0.42263,9.995038 -5.707009,18.745998 -10.152868,27.373518 -3.223031,6.06568 -6.007127,12.33607 -9.612334,18.20871 -2.169398,5.76875 -10.791177,27.04965 -12.603365,32.34066 -0.835146,10.48067 -1.220896,21.293 2.087728,31.43529 2.256938,5.65552 4.112031,11.51366 7.765418,15.88172 -0.450961,1.2737 15.030694,16.40568 20.146574,19.56728 14.43715,7.36828 30.042804,12.34993 45.770334,16.1985 3.64649,0.76362 11.54332,1.34666 12.26385,3.70778 1.85758,0.44006 -4.36824,2.69395 0.41703,3.33106 0.98065,0.62911 2.35991,0.31274 3.47059,0.35554 5.7832,0.11561 -1.40452,-3.0325 2.69234,-4.38165 5.27171,0.69388 10.56872,1.19912 15.87758,1.49862 12.42605,1.02016 24.87801,-0.0352 37.16518,-1.92391 6.95518,-1.44515 13.50342,-4.36669 19.19469,-8.56175 0.18175,-0.0904 6.98095,-5.95424 3.03031,-2.83652 3.65736,-2.89836 5.59846,-6.95463 7.49566,-10.98176 2.0383,-5.5198 2.74329,-11.49933 3.31246,-17.32866 0.0189,-8.59895 -1.06423,-17.66532 -5.2033,-25.323 -2.54902,-6.17088 -5.54428,-12.2941 -8.87801,-18.13946 -2.57676,-4.41917 -13.96792,-24.3877 -15.15411,-30.61881 -2.15431,-7.21153 -1.23774,-14.94737 1.52704,-21.87928 5.58629,-14.43277 9.95148,-30.042865 7.34684,-45.623056 -0.4433,-8.669053 -5.12208,-18.248875 -13.98055,-20.828703 -6.74104,-1.657227 -13.35313,0.81795 -19.66856,2.94504 -7.4151,1.404453 -17.51287,-0.264736 -20.70107,-8.063074 C 147.80452,29.882499 147.02491,0 147.02491,0 Z"
       sodipodi:nodetypes="cccccscccccccccccccccccccccccccccccc" /></g></svg>
