<?xml version="1.0" encoding="UTF-8" standalone="no"?>
<!-- Created with Inkscape (http://www.inkscape.org/) -->

<svg
   width="1000"
   height="1000"
   viewBox="0 0 264.58333 264.58333"
   version="1.1"
   id="svg5"
   xml:space="preserve"
   sodipodi:docname="LP-Shape.svg"
   inkscape:version="1.2.2 (732a01da63, 2022-12-09)"
   xmlns:inkscape="http://www.inkscape.org/namespaces/inkscape"
   xmlns:sodipodi="http://sodipodi.sourceforge.net/DTD/sodipodi-0.dtd"
   xmlns="http://www.w3.org/2000/svg"
   xmlns:svg="http://www.w3.org/2000/svg"><sodipodi:namedview
     id="namedview7"
     pagecolor="#ffffff"
     bordercolor="#111111"
     borderopacity="1"
     inkscape:showpageshadow="0"
     inkscape:pageopacity="0"
     inkscape:pagecheckerboard="1"
     inkscape:deskcolor="#d1d1d1"
     inkscape:document-units="mm"
     showgrid="false"
     inkscape:zoom="0.13055262"
     inkscape:cx="-2183.0279"
     inkscape:cy="1608.5469"
     inkscape:window-width="1920"
     inkscape:window-height="1009"
     inkscape:window-x="-8"
     inkscape:window-y="-8"
     inkscape:window-maximized="1"
     inkscape:current-layer="layer1" /><defs
     id="defs2" /><g
     inkscape:label="Layer 1"
     inkscape:groupmode="layer"
     id="layer1"><path
       style="fill:#000000;stroke-width:0.36281"
       d="M 112.63361,263.43573 C 88.891319,259.50302 65.644915,246.64588 53.300416,225.43559 41.823437,206.37805 41.182118,182.02681 49.675869,161.70339 c 5.353654,-13.74605 14.67087,-25.41212 24.634274,-36.09651 4.334485,-5.43713 9.538646,-10.99992 11.050519,-17.95631 -0.02551,-3.26485 0.410236,-6.60544 -1.133765,-9.620858 C 80.369552,87.665368 73.91392,78.095479 73.04807,66.788792 71.35574,54.810468 76.639625,42.133899 86.839406,35.450401 89.048218,33.001663 111.20328,25.808307 117.25927,25.765273 117.81379,17.209753 117.68604,8.5850666 118.01052,3.3333333e-6 h 27.44913 C 146.20125,15.615103 144.66501,30.696488 146.90856,46.871917 c 1.64192,11.837885 6.56596,13.738218 10.15193,15.563341 6.8144,4.040532 15.30491,3.583801 22.70389,1.875058 2.26328,-0.522686 3.60689,-1.74302 5.9901,-3.560803 1.93886,-1.478861 2.37882,-2.379457 4.7248,-3.921105 1.37715,1.335688 0.65175,6.071925 0.8448,8.647107 -0.0417,8.779537 -4.04344,17.020188 -7.7357,24.813675 -1.85129,4.333663 -4.65508,16.89581 -2.9539,21.19783 1.7012,4.30203 8.29634,12.65589 17.01036,22.0062 8.71401,9.35032 23.94781,40.82575 22.98118,64.02168 0.1352,2.53348 -2.31088,26.37567 -16.33062,39.15194 -16.62971,15.15474 -36.87778,26.04716 -58.99047,27.91649 -2.41506,0.94423 -27.37169,0.0733 -32.67132,-1.1476 z"
       id="path1211"
       sodipodi:nodetypes="scsssssscssscasssczzcscs" /></g></svg>
