<?xml version="1.0" encoding="UTF-8" standalone="no"?>
<!-- Created with Inkscape (http://www.inkscape.org/) -->

<svg
   width="1000"
   height="1000"
   viewBox="0 0 264.58333 264.58333"
   version="1.1"
   id="svg5"
   xml:space="preserve"
   inkscape:version="1.2.2 (732a01da63, 2022-12-09)"
   sodipodi:docname="S-Shape.svg"
   xmlns:inkscape="http://www.inkscape.org/namespaces/inkscape"
   xmlns:sodipodi="http://sodipodi.sourceforge.net/DTD/sodipodi-0.dtd"
   xmlns="http://www.w3.org/2000/svg"
   xmlns:svg="http://www.w3.org/2000/svg"><sodipodi:namedview
     id="namedview7"
     pagecolor="#ffffff"
     bordercolor="#111111"
     borderopacity="1"
     inkscape:showpageshadow="0"
     inkscape:pageopacity="0"
     inkscape:pagecheckerboard="1"
     inkscape:deskcolor="#d1d1d1"
     inkscape:document-units="mm"
     showgrid="false"
     inkscape:zoom="0.18462928"
     inkscape:cx="-232.89914"
     inkscape:cy="368.30561"
     inkscape:window-width="1920"
     inkscape:window-height="1009"
     inkscape:window-x="-8"
     inkscape:window-y="-8"
     inkscape:window-maximized="1"
     inkscape:current-layer="layer1" /><defs
     id="defs2" /><g
     inkscape:label="Layer 1"
     inkscape:groupmode="layer"
     id="layer1"><path
       style="fill:#000000;stroke-width:0.521416"
       d="M 75.141496,255.96622 C 58.528383,245.40606 49.122019,231.20825 46.390245,211.55799 43.911706,195.3501 47.711604,178.72703 54.97896,164.19007 60.725562,151.29276 68.500356,139.10642 71.810828,125.25771 73.876898,112.42764 72.522569,99.06782 67.703816,86.976089 62.245825,72.136857 57.04166,56.511469 58.767014,40.473277 c 1.366745,-10.180368 6.76794,-21.533129 17.179107,-24.932388 6.347745,-1.815718 10.50235,5.152417 9.551544,10.735322 0.1076,9.363915 1.07031,19.628612 7.984575,26.671137 4.727529,4.775758 10.10424,9.896381 16.91716,11.203305 6.52517,1.406213 7.8418,-6.625264 7.3867,-10.805146 -0.373,-16.636074 -0.24673,-33.301939 0.3773,-49.9282706 0.53488,-6.0725503 9.35208,-2.2300736 13.57816,-3.41804145485 C 136.50827,0.60535683 145.34969,-2.0753644 146.33015,4.7725192 c 0.53653,21.0006068 0.13795,42.0485368 1.22448,63.0430928 0.35171,6.016817 5.82616,10.75333 11.8111,10.535548 8.43928,1.004961 17.49562,-2.863404 21.38534,-10.665551 3.27552,-4.996925 3.83605,-12.169593 9.37862,-15.350553 5.98641,-2.584402 11.28295,3.494919 13.43103,8.456779 3.06602,6.444715 2.28317,13.846231 1.63055,20.729672 -2.22759,10.538136 -8.16673,19.799493 -11.4506,30.005543 -3.53426,8.93194 -1.60713,18.99056 2.52809,27.36828 7.64423,16.7703 17.63601,32.79757 21.47477,51.04461 3.94268,18.38446 1.80757,39.39281 -11.10087,53.92845 -10.77363,12.63039 -27.60244,17.22108 -43.49368,18.90855 -9.22482,1.24937 -68.269843,5.73553 -88.007484,-6.81072 z"
       id="path437"
       sodipodi:nodetypes="sssssscssssssssssssssscsss" /></g></svg>
