<?xml version="1.0" encoding="UTF-8" standalone="no"?>
<!-- Created with Inkscape (http://www.inkscape.org/) -->

<svg
   width="1000"
   height="1000"
   viewBox="0 0 264.58333 264.58333"
   version="1.1"
   id="svg5"
   xml:space="preserve"
   sodipodi:docname="SS-Shape.svg"
   inkscape:version="1.2.2 (732a01da63, 2022-12-09)"
   xmlns:inkscape="http://www.inkscape.org/namespaces/inkscape"
   xmlns:sodipodi="http://sodipodi.sourceforge.net/DTD/sodipodi-0.dtd"
   xmlns="http://www.w3.org/2000/svg"
   xmlns:svg="http://www.w3.org/2000/svg"><sodipodi:namedview
     id="namedview7"
     pagecolor="#ffffff"
     bordercolor="#111111"
     borderopacity="1"
     inkscape:showpageshadow="0"
     inkscape:pageopacity="0"
     inkscape:pagecheckerboard="1"
     inkscape:deskcolor="#d1d1d1"
     inkscape:document-units="mm"
     showgrid="false"
     inkscape:zoom="0.36925856"
     inkscape:cx="27.081295"
     inkscape:cy="888.26648"
     inkscape:window-width="1920"
     inkscape:window-height="1009"
     inkscape:window-x="-8"
     inkscape:window-y="-8"
     inkscape:window-maximized="1"
     inkscape:current-layer="layer1" /><defs
     id="defs2" /><g
     inkscape:label="Layer 1"
     inkscape:groupmode="layer"
     id="layer1"><path
       id="rect354"
       style="font-variation-settings:'wght' 700;fill:#000000;fill-rule:evenodd;stroke-width:89.9999;stroke-miterlimit:3.6;paint-order:stroke fill markers"
       d="M 117.35614 0 C 116.98033 11.913369 116.43173 40.791921 116.427 52.046436 C 116.42456 58.00355 116.42461 58.003524 115.03277 60.426286 C 101.07707 84.718894 76.670842 70.007136 72.837931 34.991663 C 72.769753 34.368828 72.613006 32.941891 72.489632 31.820797 C 72.084772 28.141693 71.801894 19.708526 71.861764 13.100492 C 71.9568 2.5998006 69.824874 2.8381263 64.264294 13.950053 C 54.438706 33.584918 54.639905 44.777849 65.470422 81.080839 C 76.619998 118.45335 76.022048 126.99056 59.942078 160.0662 C 48.409022 183.78904 44.467492 197.24306 45.961019 207.7868 C 46.103097 208.7898 46.372068 210.71628 46.558915 212.06768 C 48.404673 225.41758 55.83786 238.04276 67.277547 247.25829 C 81.845511 258.9939 101.02672 264.35609 129.05104 264.52701 C 129.37504 264.52899 129.56712 264.54696 129.71095 264.58333 L 138.67784 264.58333 C 138.80467 264.54894 138.96988 264.53134 139.24266 264.53062 C 192.39597 264.39121 215.94719 250.14577 218.79853 216.41056 C 219.07184 213.17701 218.87319 204.36812 218.46884 201.79647 C 216.43063 188.83372 212.38291 178.49146 201.58356 158.65181 C 188.20821 134.07981 187.76295 129.36439 197.05205 110.63717 C 206.36085 91.870239 208.67455 80.572813 206.00396 66.925631 C 204.77711 60.656248 200.9695 49.251465 199.93353 48.742761 C 198.2794 47.930546 197.50577 48.243773 197.50577 49.72513 C 197.50577 61.11375 193.8102 77.892676 189.46234 86.245382 C 180.19294 104.0529 159.098 104.0836 151.06675 86.301192 C 147.80194 79.072524 148.05918 81.329764 147.78995 57.526721 C 147.72585 51.858978 147.62529 45.744089 147.56619 43.937887 C 147.50709 42.131684 147.40493 35.863604 147.33933 30.009021 C 147.27373 24.15443 147.17232 17.78458 147.11402 15.853813 C 147.05564 13.923038 146.95493 6.788839 146.89078 0 L 117.35614 0 z " /></g></svg>
